<svg width="311" height="322" viewBox="0 0 311 322" fill="none" xmlns="http://www.w3.org/2000/svg">
<path d="M279.028 292.032C279.225 289.794 277.699 287.752 275.844 286.669C275.55 286.458 275.231 286.328 274.959 286.347C274.806 286.338 274.663 286.366 274.548 286.443C273.27 286.782 272.101 287.483 271.366 288.491C264.2 283.382 257.035 278.274 249.869 273.166C256.449 271.857 263.021 270.506 269.579 269.084C270.634 271.152 273.337 272.711 275.515 271.264C279.388 268.691 274.355 263.155 270.849 264.67C270.758 264.709 270.705 264.769 270.673 264.839C270.58 264.853 270.492 264.879 270.417 264.933C269.696 265.456 269.311 266.102 269.177 266.787C268.983 266.724 268.785 266.699 268.595 266.741C261.897 268.194 255.184 269.574 248.462 270.91C255.662 262.516 262.811 254.079 269.916 245.604C269.983 245.656 270.047 245.714 270.115 245.763C272.818 247.719 278.417 246.849 279.921 243.693C281.692 239.975 278.476 236.253 275.308 234.668C273.407 233.717 269.419 233.508 267.634 234.847C265.407 236.518 266.853 241.38 268.079 243.465C260.61 252.376 253.09 261.243 245.517 270.064C245.275 269.892 245.033 269.719 244.791 269.547C243.862 262.288 242.77 255.051 241.52 247.836C243.154 247.841 244.787 247.219 245.594 245.755C246.882 243.421 243.614 240.641 241.824 239.758C239.723 238.723 237.312 239.229 235.948 240.965C235.767 240.904 235.635 240.895 235.606 240.968C235.469 241.302 235.389 241.634 235.351 241.962C235.312 242.047 235.271 242.129 235.237 242.217C235.185 242.353 235.23 242.514 235.337 242.683C235.476 244.475 236.886 246.07 238.437 247.019C238.747 247.208 239.094 247.364 239.459 247.491C240.619 254.283 241.641 261.095 242.518 267.926C234.876 262.478 227.233 257.03 219.591 251.582C219.799 250.753 219.868 249.874 219.849 249.101C219.842 248.802 219.51 248.435 219.102 248.127C218.899 247.535 218.589 246.994 218.088 246.503C218.062 246.477 218.031 246.45 218.003 246.424C219.391 242.216 220.721 237.989 221.991 233.745C224.132 226.59 227.284 218.647 228.225 211.116C236.338 207.243 244.466 203.404 252.629 199.637C263.438 194.648 274.241 189.602 285.266 185.108C290.282 183.064 295.322 181.038 300.13 178.529C303.754 176.639 308.721 174.606 309.264 170.08C309.277 169.979 309.259 169.845 309.222 169.694C310.011 169.34 310.562 168.668 310.206 167.83C301.632 147.634 292.784 127.555 283.645 107.609C279.13 97.7565 274.546 87.936 269.894 78.1478C267.625 73.3733 265.339 68.6064 263.036 63.8476C261.072 59.787 259.481 54.5254 255.776 51.6966C255.386 51.3986 254.812 51.3215 254.231 51.3864C253.573 50.5985 252.313 50.064 251.449 50.5845C249.269 51.8987 247.076 53.1892 244.881 54.4769C244.881 54.4696 244.893 54.4584 244.892 54.4515C244.034 44.9526 241.265 36.1165 234.077 29.8316C224.625 21.5688 210.366 20.8608 198.446 24.8274C183.553 29.7829 170.024 39.1345 159.694 50.9257C159.397 51.2647 159.122 51.6164 158.834 51.9605C158.23 51.6899 157.516 51.5806 156.947 51.5531C156.246 51.5191 155.638 51.6582 155.066 51.9099C154.563 51.8203 154.068 51.8243 153.843 52.022C153.263 52.5329 152.664 53.1804 152.196 53.8952C143.009 51.9778 133.822 50.0599 124.634 48.1424C130.247 44.1517 135.944 40.2809 141.721 36.5246C142.062 36.707 142.411 36.856 142.761 36.955C144.511 37.4505 146.639 37.4041 148.05 36.2906C148.246 36.2544 148.395 36.1786 148.46 36.0481C148.502 35.963 148.533 35.8771 148.57 35.7912C148.784 35.5403 148.974 35.2561 149.127 34.9294C149.161 34.8576 149.065 34.7672 148.897 34.6754C149.247 32.4959 147.983 30.3812 145.797 29.5404C143.934 28.8238 139.675 28.3102 138.833 30.8394C138.306 32.4256 138.957 34.0466 140.069 35.2441C133.921 39.2211 127.864 43.3292 121.901 47.5715C121.61 47.5107 121.32 47.45 121.028 47.3895C122.37 35.841 123.782 24.3005 125.261 12.7683C127.624 12.2542 132.177 10.0175 131.893 7.2479C131.666 5.02831 128.806 2.24052 126.817 1.48882C123.504 0.236657 118.588 0.399522 117.058 4.22421C115.76 7.47021 118.919 12.1733 122.191 12.8321C122.273 12.8486 122.359 12.8564 122.442 12.87C121.038 23.8395 119.69 34.8157 118.409 45.7996C114.83 39.9556 111.289 34.0882 107.812 28.1811C107.713 28.0136 107.561 27.885 107.384 27.7856C107.796 27.222 108.01 26.5011 107.904 25.6168C107.892 25.5248 107.852 25.4423 107.8 25.365C107.829 25.2937 107.837 25.214 107.804 25.1209C106.538 21.5176 99.0569 21.5765 99.7941 26.1674C100.209 28.7491 103.188 29.6775 105.423 29.0493C108.829 34.8313 112.295 40.576 115.798 46.2974C107.184 44.4995 98.5692 42.7013 89.9547 40.9034C90.1957 39.68 89.9179 38.3453 89.2994 37.1766C89.2781 37.04 89.2021 36.9162 89.0919 36.8097C88.9209 36.5969 88.609 36.4511 88.2549 36.378C86.2003 35.7502 83.6655 36.015 82.1549 37.6775C80.7909 39.1788 80.9753 41.4974 82.3496 42.9255C83.8792 44.5146 86.5995 44.6884 88.3736 43.396C88.5288 43.283 88.6701 43.163 88.8006 43.0376C98.48 45.3028 108.171 47.5173 117.871 49.6932C117.898 49.7368 117.924 49.7807 117.951 49.8243C117.926 50.0359 117.903 50.2478 117.878 50.4597C113.541 53.6114 109.257 56.8366 105.021 60.1291C104.775 59.9471 104.508 59.7907 104.229 59.6642C103.988 59.2128 103.056 59.108 102.65 59.0845C100.921 58.9825 98.8616 59.977 98.7377 61.9276C98.6278 63.6588 100.255 64.7525 101.753 65.1054C103.494 65.5158 105.556 65.0888 106.175 63.198C106.363 62.624 106.336 62.0851 106.165 61.6003C106.418 61.5985 106.636 61.5565 106.771 61.4515C110.329 58.6732 113.928 55.951 117.557 53.2724C116.685 60.9249 115.838 68.5799 115.025 76.2392C114.94 76.3514 114.885 76.4886 114.873 76.6525C114.838 77.1241 114.802 77.5962 114.767 78.0678C113.414 78.3398 112.164 78.9441 111.383 80.1282C109.986 82.2486 111.241 85.0304 113.45 85.9266C115.864 86.9059 118.72 85.9809 119.669 83.469C120.229 81.9863 120.484 79.7473 119.323 78.7822C119.261 78.4091 118.914 78.0513 118.204 77.968C118.022 77.9465 117.831 77.9353 117.642 77.9211C118.498 69.8173 119.395 61.7181 120.318 53.6217C123.89 59.3602 127.502 65.0732 131.173 70.7498C130.431 71.3388 129.886 72.1421 129.71 73.213C129.306 75.6809 131.685 77.3438 133.87 77.5964C136.342 77.8821 138.866 76.3665 139.597 73.9327C140.144 72.1085 139.042 70.712 137.529 70.3087C137.532 70.2618 137.537 70.216 137.528 70.163C137.431 69.5643 136.385 69.3792 135.915 69.3751C135.114 69.3685 134.247 69.4591 133.421 69.6777C129.322 63.3327 125.284 56.9492 121.308 50.5266C121.329 50.5121 121.349 50.4975 121.37 50.4827C131.377 52.7163 141.398 54.8943 151.426 57.0326C151.529 57.4647 151.734 57.8912 152.075 58.3008C152.437 58.7359 152.923 59.0564 153.464 59.2877C146.117 70.7141 141.592 83.7195 134.435 95.3865C109.804 135.535 63.2391 105.095 28.3316 104C4.40987 103.25 11.7217 136.458 17.0209 149.595C18.474 153.197 19.9789 159.228 22.2063 163.059C20.7504 163.676 19.299 164.304 17.8413 164.917C13.5746 166.712 8.76769 168.142 4.85153 170.643C-1.45134 174.668 -0.368592 180.256 3.05376 185.84C12.9906 202.057 21.3061 219.163 28.8521 236.611C32.5663 245.198 36.1107 253.858 39.616 262.533C43.0713 271.084 46.1218 279.954 50.062 288.292C51.3782 291.077 53.2177 293.263 56.5625 292.637C60.7768 291.849 65.2052 288.051 68.9087 285.971C77.9456 280.896 87.1375 276.099 96.4665 271.587C97.1162 271.273 97.7716 270.971 98.4227 270.66C98.5572 270.823 98.6903 270.987 98.8252 271.15C104.294 277.746 110.484 283.857 115.75 290.501C121.433 297.674 126.967 304.877 134.153 310.645C142.491 317.338 153.007 321.954 163.666 321.087C175.605 320.116 186.178 312.377 193.372 302.778C198.512 295.919 202.424 288.083 205.781 279.999C208.595 273.223 211.019 266.272 213.45 259.576C214.065 257.884 214.662 256.185 215.257 254.486C215.645 254.605 216.04 254.681 216.437 254.66C216.969 254.633 217.421 254.494 217.808 254.276C226.184 260.193 234.582 266.076 243.013 271.912C243.016 271.937 243.02 271.962 243.023 271.987C235.607 273.425 228.178 274.789 220.736 276.083C220.336 275.327 219.815 274.629 219.266 274.045C218.945 273.703 218.098 273.06 217.593 273.395C217.548 273.424 217.518 273.459 217.486 273.493C216.163 272.656 214.389 272.793 213.42 274.433C212.128 276.621 212.727 279.503 214.614 281.125C216.283 282.56 219.118 283.179 220.657 281.207C221.325 280.352 221.545 279.406 221.474 278.461C228.134 277.306 234.782 276.084 241.421 274.814C236.1 280.985 230.759 287.139 225.387 293.267C225.248 293.138 225.11 293.005 224.971 292.886C224.428 292.421 223.93 292.408 223.614 292.617C222.116 292.418 220.645 294.125 219.936 295.542C218.735 297.943 219.993 300.669 222.35 301.778C224.507 302.793 227.402 301.827 228.012 299.362C228.353 297.985 227.948 296.657 227.23 295.478C227.552 295.132 227.875 294.786 228.198 294.44C228.31 294.319 228.373 294.186 228.398 294.048C233.473 288.254 238.522 282.438 243.551 276.605C244.047 281.089 244.488 285.579 244.862 290.078C244.876 290.248 244.993 290.437 245.163 290.624C244.692 290.827 244.277 291.173 243.983 291.701C243.014 293.438 244.099 295.243 245.582 296.244C246.858 297.105 248.766 297.558 249.963 296.302C251.311 294.888 250.644 292.7 249.396 291.499C249.103 291.217 248.395 290.604 247.899 290.733C247.617 290.614 247.321 290.524 247.021 290.467C246.565 285.121 246.027 279.786 245.4 274.461C245.539 274.3 245.678 274.138 245.817 273.977C245.867 273.967 245.918 273.956 245.968 273.946C254.147 279.596 262.349 285.212 270.581 290.786C270.577 290.967 270.585 291.152 270.607 291.342C270.862 293.523 272.835 295.403 275.04 295.449C277.022 295.49 278.851 294.052 279.028 292.032ZM185.847 231.992C185.75 232.592 185.678 233.199 185.619 233.807C185.58 233.202 185.599 232.58 185.711 231.926C185.754 231.93 185.796 231.928 185.834 231.909C185.845 231.903 185.857 231.897 185.869 231.892C185.862 231.927 185.853 231.956 185.847 231.992ZM221.843 82.0944C221.843 84.1165 222.835 86.5213 223.462 88.454C224.647 92.1042 226.231 95.5723 228.098 98.918C228.348 99.3659 226.057 99.3836 225.724 98.7878C223.415 94.6501 221.562 90.3187 220.319 85.7376C219.291 81.9516 218.783 79.8976 222.165 77.4025C229.316 72.1265 237.291 68.0224 245.607 64.9436C246.18 64.7308 248.333 65.427 247.638 65.6841C239.833 68.5739 232.415 72.364 225.604 77.1676C223.679 78.5257 221.842 79.513 221.843 82.0944ZM168.988 92.8696C172.734 91.2609 176.466 89.6182 180.183 87.9417C187.615 84.5899 194.987 81.1033 202.293 77.4846C209.598 73.8661 216.839 70.1153 224.01 66.2348C227.596 64.2944 231.164 62.3213 234.714 60.3161C235.556 59.8411 241.309 57.0548 243.769 55.4513C244.278 56.2258 244.567 57.163 244.469 58.1806C244.442 58.4659 244.424 58.7521 244.415 59.0359C233.036 65.6522 221.486 71.9613 209.745 77.8945C215.106 89.0029 220.569 100.062 225.995 111.14C240.149 104.512 254.196 97.6498 268.184 90.6805C263.433 80.6245 258.526 70.6513 253.432 60.8017C252.825 59.6278 251.927 56.9762 250.764 55.3685C251.506 54.929 252.249 54.4928 252.989 54.0488C256.378 57.0333 258.034 62.6696 259.936 66.6063C262.235 71.3668 264.518 76.135 266.784 80.911C268.127 83.7422 269.452 86.5823 270.784 89.4191C270.674 89.4736 270.565 89.5278 270.455 89.5824C270.688 90.0904 270.894 90.604 271.089 91.1219C271.223 91.0552 271.357 90.9891 271.491 90.9224C274.525 97.3967 277.54 103.88 280.515 110.382C283.015 115.849 285.48 121.331 287.934 126.819C288.159 127.103 288.362 127.427 288.533 127.798C288.967 128.739 289.323 129.704 289.66 130.676C289.779 130.944 289.9 131.212 290.02 131.48C289.996 131.494 289.973 131.507 289.949 131.52C290.17 132.192 290.389 132.866 290.604 133.541C290.692 133.49 290.781 133.442 290.87 133.391C296.146 145.273 301.335 157.194 306.416 169.161C306.43 169.193 306.452 169.217 306.468 169.246C304.211 172.855 297.871 175.161 294.616 176.681C289.906 178.879 285.057 180.752 280.258 182.74C269.364 187.254 258.674 192.322 247.975 197.279C236.311 202.685 224.706 208.217 213.144 213.837C211.352 214.913 209.569 216.001 207.634 216.81C207.221 216.982 206.821 217.076 206.436 217.116C199.924 220.305 193.427 223.523 186.947 226.777C187.032 223.508 185.01 221.929 182.568 220.655C183.331 220.742 184.111 220.757 184.91 220.698C184.888 220.637 184.914 220.578 185.02 220.528C187.256 219.473 189.493 218.418 191.729 217.363C193.716 216.426 197.39 215.425 198.537 213.53C199.734 211.554 197.72 208.537 196.964 206.577C196.161 204.496 195.474 202.38 194.842 200.241C194.681 199.697 197.048 199.836 197.213 200.393C198.129 203.495 199.208 206.497 200.459 209.478C201.047 210.879 201.979 212.502 201.172 214.02C201.086 214.182 200.964 214.338 200.825 214.49C203.131 213.375 205.437 212.26 207.741 211.144C202.616 200.422 197.746 189.582 192.802 178.776C184.533 182.588 176.346 186.573 168.308 190.866C168.221 190.136 168.122 189.414 168.013 188.699C175.879 184.536 183.88 180.652 191.962 176.937C189.95 172.553 187.919 168.177 185.844 163.822C181.45 154.603 176.861 145.48 172.282 136.352C167.994 138.072 163.693 139.765 159.375 141.414C159.295 141.444 159.187 141.454 159.069 141.456C159.075 140.933 159.083 140.409 159.095 139.885C163.273 138.279 167.441 136.646 171.591 134.973C168.097 128.005 164.628 121.025 161.25 114C161.342 113.181 161.433 112.362 161.523 111.545C161.997 111.599 162.44 111.733 162.549 111.961C166.106 119.419 169.791 126.814 173.493 134.2C190.509 127.294 207.304 119.862 223.949 112.099C218.533 101.037 213.079 89.9957 207.723 78.9066C193.106 86.2319 178.227 93.0321 163.108 99.2826C163.232 97.8786 163.172 96.5419 162.679 95.4996C164.871 95.0769 167.065 93.6952 168.988 92.8696ZM260.579 83.4692C260.231 82.4381 259.573 81.4452 259.037 80.4955C257.525 77.8175 255.752 75.3198 253.808 72.9403C253.168 72.1568 255.545 72.1761 255.986 72.7159C258.007 75.1898 259.85 77.7765 261.42 80.5642C262.496 82.4756 264.485 85.0653 263.328 87.2624C262.171 89.4618 257.926 91.1507 255.885 92.3417C252.455 94.3432 248.904 96.0948 245.266 97.6819C244.622 97.9633 242.408 97.1925 243.253 96.8239C248.476 94.545 253.545 91.9048 258.292 88.7373C260.619 87.184 261.634 86.5927 260.579 83.4692ZM161.368 131.124C161.399 129.566 160.701 128.174 160.112 126.77C160.053 126.63 159.994 126.49 159.936 126.35C160.072 124.898 160.22 123.449 160.372 122C160.453 122.063 160.517 122.131 160.55 122.21C161.27 123.928 161.99 125.645 162.709 127.363C163.272 128.707 163.824 130.01 163.795 131.491C163.781 132.173 161.353 131.913 161.368 131.124ZM171.764 162.544C170.39 159.848 169.016 157.152 167.641 154.456C167.298 153.782 166.955 153.108 166.611 152.434C166.484 151.367 165.998 151.118 165.153 151.686C163.98 151.677 161.965 153.003 160.866 153.458C160.49 153.613 159.979 153.523 159.565 153.321C159.519 152.873 159.471 152.425 159.432 151.977C161.547 151.068 165.442 148.38 167.675 150.077C168.97 151.061 169.64 153.492 170.38 154.943C171.582 157.303 172.784 159.662 173.987 162.021C174.606 163.238 172.24 163.48 171.764 162.544ZM189.343 192.062C182.566 194.439 175.957 197.211 169.513 200.385C169.417 199.886 169.33 199.385 169.251 198.88C175.135 196.071 181.144 193.561 187.3 191.402C187.831 191.215 189.927 191.857 189.343 192.062ZM212.252 107.488C212.214 106.184 211.179 104.561 210.699 103.32C209.958 101.401 209.217 99.482 208.476 97.5632C208.069 96.5103 210.51 96.538 210.88 97.4957C212.669 102.129 218.445 110.783 211.4 113.245C203.141 116.13 195.068 118.78 187.2 122.686C186.278 123.144 184.325 121.966 185.654 121.306C191.43 118.439 197.361 115.927 203.469 113.858C206.675 112.772 212.397 112.382 212.252 107.488ZM201.824 89.182C192.825 92.2713 183.705 95.3974 175.62 100.529C173.484 101.885 169.588 104.058 169.251 106.731C168.975 108.913 169.983 111.07 170.803 113.041C172.665 117.511 174.818 121.848 177.152 126.088C177.551 126.811 175.169 126.797 174.763 126.06C172.044 121.122 169.219 115.93 167.435 110.56C165.927 106.018 167.596 103.75 171.289 101.149C180.019 95.0008 190.234 91.489 200.241 88.054C200.987 87.7978 203.122 88.7368 201.824 89.182ZM28.6096 117.801L40.8782 120.306L48.1474 110.217L45.669 122.448L55.8481 129.624L43.7037 127.22L36.3021 137.297L38.7696 125.092L28.6096 117.801ZM64.9767 283.866C62.4345 285.318 59.8678 287.311 57.1057 288.302C52.2636 290.041 50.5794 282.895 49.2389 279.59C44.332 267.496 39.5348 255.357 34.4941 243.318C29.5956 231.619 24.4668 220.007 18.8051 208.657C15.8487 202.73 12.7451 196.876 9.45431 191.129C7.86842 188.359 6.23505 185.617 4.56442 182.897C3.30767 180.852 2.32427 178.407 3.72218 175.979C4.49604 174.636 7.20885 173.636 8.58816 173.017C19.8822 167.943 31.2477 163.052 42.6039 158.14C42.6875 158.104 42.7711 158.068 42.8548 158.031C56.8949 151.957 70.9193 145.847 84.7724 139.308C98.6404 132.762 112.42 126.028 126.106 119.106C130.993 116.635 136.324 114.38 141.044 111.408C140.883 111.791 140.736 112.183 140.626 112.594C140.094 114.57 140.421 116.647 140.151 118.651C139.953 120.122 139.564 121.498 138.464 122.578C137.489 123.537 136.3 123.79 135.505 124.982C134.624 126.302 134.515 127.934 135.089 129.379C135.851 131.299 137.081 131.343 138.421 132.536C139.932 133.88 139.923 134.97 140.967 136.355C142.125 137.89 143.58 138.645 144.241 140.603C144.866 142.459 145.026 144.151 146.348 145.694C146.804 146.226 148.942 146.094 148.72 145.836C146.805 143.601 147.163 140.402 145.256 138.18C144.673 137.5 143.834 137.094 143.318 136.346C142.681 135.423 143.048 134.707 142.57 133.786C142.113 132.906 141.578 132.95 140.833 132.415C139.165 131.218 136.995 130.218 137.134 127.812C137.242 125.946 138.434 124.997 139.706 123.883C140.905 122.832 141.745 122.288 142.249 120.701C142.857 118.786 142.591 116.716 142.789 114.743C143.115 111.494 144.914 109.146 147.034 106.75C147.112 106.661 147.053 106.558 146.916 106.457C150.664 101.853 155.894 94.0097 160.596 97.9035C158.481 118.532 154.554 140.332 158.316 160.899C160.21 171.256 164.666 180.959 166.106 191.416C167.151 199.007 167.323 207.012 172.28 213.163C172.608 215.276 171.421 217.688 171.44 219.832C171.467 222.877 174.689 224.401 174.124 227.496C173.99 228.226 176.411 228.626 176.55 227.863C176.82 226.386 176.536 225.466 175.764 224.188C174.506 222.107 173.61 221.226 174.019 218.719C174.075 218.375 174.142 218.031 174.212 217.686C177.524 220.822 183.967 221.326 184.453 226.12C184.52 226.784 184.466 227.433 184.353 228.075C184.27 228.117 184.185 228.159 184.102 228.201C183.865 228.32 183.894 228.791 184.061 229.358C183.579 231.124 182.888 232.876 183.145 234.785C183.396 236.642 184.004 238.319 183.677 240.232C183.333 242.242 182.037 244.499 180.763 246.064C180.059 246.928 179.341 247.974 178.479 247.641C178.102 247.495 177.737 246.707 177.404 246.443C176.755 245.931 176.293 245.662 175.502 245.507C173.234 245.061 171.64 246.843 169.743 247.749C167.978 248.59 165.584 249.054 163.635 248.903C162.079 248.782 159.765 248.022 158.717 246.772C158.471 246.479 158.536 245.946 158.305 245.63C157.243 244.175 156.569 243.223 154.976 243.061C154.249 242.201 153.805 241.185 154.232 239.982C154.477 239.291 152.101 238.782 151.806 239.614C151.221 241.262 152.098 242.66 153.232 243.791C153.242 243.882 153.271 243.973 153.315 244.063C129.008 252.368 105.322 262.44 82.5234 274.297C76.6124 277.37 70.7624 280.561 64.9767 283.866ZM142.819 290.446L135.417 300.523L137.884 288.318L127.725 281.027L139.993 283.532L147.263 273.443L144.784 285.673L154.963 292.85L142.819 290.446ZM160.037 238.467C159.923 238.348 161.936 238.159 162.403 238.649C163.632 239.938 165.38 242.036 167.331 241.364C168.735 240.881 169.8 239.58 171.105 238.88C171.715 238.552 173.544 239.34 173.418 239.407C170.956 240.728 169.487 242.697 166.455 242.309C163.795 241.968 161.834 240.352 160.037 238.467ZM148.903 111.194C148.444 111.172 147.611 111.019 147.49 110.449C147.376 109.911 148.036 109.64 148.477 109.662C150.066 109.74 151.466 108.957 152.348 107.643C152.893 106.83 155.239 107.481 154.627 108.392C153.363 110.276 151.153 111.305 148.903 111.194ZM150.813 118.327C149.413 118.516 148.172 119.126 147.129 120.077C146.783 120.392 145.981 120.227 145.594 120.131C145.448 120.095 144.491 119.811 144.822 119.51C146.039 118.399 147.555 117.721 149.183 117.5C149.724 117.427 150.417 117.486 150.899 117.76C151.265 117.968 151.282 118.263 150.813 118.327ZM150.796 221.622C153.048 225.809 154.636 230.252 155.508 234.931C155.721 236.076 153.287 235.962 153.106 234.986C152.262 230.457 150.764 226.139 148.583 222.081C147.962 220.926 150.337 220.769 150.796 221.622ZM145.234 212.446C144.761 210.748 145.16 208.26 145.915 206.742C146.357 205.853 147.049 205.304 147.632 204.516C148.437 203.426 148.616 202.102 149.276 201.001C149.859 200.028 150.123 199.772 151.16 199.538C151.757 199.404 153.991 200.183 152.776 200.457C151.617 200.718 151.104 203.671 150.273 204.728C148.908 206.462 147.793 207.808 147.601 210.08C147.319 213.419 149.876 215.443 150.105 218.758C150.143 219.311 147.73 219.146 147.678 218.39C147.498 215.782 145.853 214.669 145.234 212.446ZM148.722 199.732C149.096 200.638 146.673 200.577 146.327 199.74C144.955 196.412 146.796 193.265 148.623 190.533C149.127 189.778 151.475 190.401 150.908 191.249C149.212 193.787 147.445 196.635 148.722 199.732ZM73.0623 103.262L75.0556 93.4114L66.856 87.5247L76.7584 89.5483L82.6275 81.4057L80.6251 91.2775L88.8403 97.072L79.0381 95.1292L73.0623 103.262ZM247.106 155.057C251.865 165.027 256.623 174.997 261.382 184.966C269.634 180.905 277.882 176.835 286.124 172.75C287.112 172.26 288.163 171.806 289.217 171.355C290.531 170.628 291.855 169.92 293.191 169.233C293.862 168.888 294.938 168.417 295.913 167.825C296.929 166.995 297.707 166.029 298.115 164.849C298.035 163.42 296.998 161.597 296.539 160.474C294.777 156.163 293.094 151.589 291.533 147.113C290.736 144.829 289.805 142.53 289.172 140.195C288.696 138.437 288.809 136.734 287.838 135.112C281.026 137.983 274.542 142.202 267.864 145.453C261.01 148.792 254.077 151.968 247.106 155.057ZM279.329 147.23C280.094 146.974 282.217 147.942 280.909 148.381C276.883 149.733 273.189 151.868 269.438 153.834C266.624 155.31 260.131 157.33 258.961 160.248C257.852 163.012 260.247 167.876 261.225 170.593C262.464 174.039 263.966 177.365 265.646 180.615C266.043 181.382 263.648 181.357 263.255 180.596C261.154 176.533 259.349 172.34 257.952 167.979C257.267 165.842 254.988 161.107 256.358 158.923C257.257 157.49 260.278 156.637 261.692 155.895C263.847 154.765 266.002 153.635 268.158 152.505C271.812 150.589 275.407 148.547 279.329 147.23ZM246.239 153.241C260.112 147.081 273.812 140.571 287.057 133.122C281.295 119.358 275.253 105.688 268.898 92.179C254.911 99.1384 240.865 105.989 226.71 112.601C229.675 118.66 232.628 124.725 235.534 130.814C239.103 138.289 242.671 145.765 246.239 153.241ZM257.822 138.617C261.309 137.107 264.797 135.596 268.285 134.086C270.984 132.917 277.627 131.318 278.236 127.802C278.691 125.176 276.592 120.761 275.735 118.364C274.709 115.495 273.509 112.709 272.194 109.962C271.818 109.175 274.218 109.218 274.584 109.984C276.404 113.787 277.989 117.683 279.239 121.713C279.934 123.954 281.43 127.161 280.215 129.47C278.828 132.104 274.573 133.188 272.109 134.255C267.874 136.089 263.639 137.923 259.404 139.758C258.659 140.08 256.543 139.171 257.822 138.617ZM235.64 119.922C236.068 116.744 241.879 114.498 244.234 113.018C248.571 110.294 252.935 107.615 257.32 104.969C258.32 104.366 260.15 105.702 258.844 106.49C255.336 108.607 251.841 110.744 248.363 112.91C245.209 114.875 237.932 117.927 238.534 122.337C239.003 125.778 241.065 129.878 242.44 133.008C243.904 136.342 245.663 139.468 247.82 142.4C248.632 143.504 246.246 143.879 245.588 142.984C242.859 139.275 240.806 135.236 239.119 130.956C237.977 128.059 235.215 123.073 235.64 119.922ZM194.699 177.903C199.644 188.694 204.504 199.525 209.605 210.242C216.332 206.983 223.053 203.71 229.772 200.435C229.799 200.122 229.867 199.811 229.975 199.505C228.919 199.894 227.858 200.273 226.789 200.632C225.666 201.008 224.26 199.536 225.781 199.025C231.4 197.141 236.851 194.809 242.057 191.967C244.544 190.609 250.205 188.48 250.158 185.129C250.126 182.825 248.267 179.502 247.534 177.322C247.158 176.202 249.602 176.23 249.941 177.238C250.756 179.665 253.271 184.156 252.775 186.714C252.441 188.433 250.162 189.763 248.289 190.764C248.554 190.823 248.802 190.908 249.033 191.017C252.471 189.331 255.913 187.653 259.349 185.964C254.577 175.966 249.805 165.969 245.034 155.972C228.289 163.346 211.337 170.297 194.699 177.903ZM241.698 167.106C233.5 170.54 225.554 174.526 217.954 179.145C215.783 180.464 213.453 181.605 211.956 183.676C210.499 185.694 211.555 188.015 212.303 190.291C213.697 194.534 215.859 198.396 218.517 201.963C219.336 203.063 216.95 203.447 216.284 202.552C213.251 198.482 210.92 194.003 209.489 189.121C208.6 186.085 207.559 183.687 210.188 181.594C218.829 174.717 230.069 169.809 240.176 165.577C241.233 165.134 243.087 166.524 241.698 167.106ZM188.212 163.983C190.125 167.997 191.998 172.029 193.854 176.069C210.493 168.483 227.438 161.54 244.168 154.158C240.546 146.571 236.924 138.983 233.303 131.395C230.457 125.432 227.566 119.493 224.663 113.559C208.014 121.304 191.214 128.714 174.189 135.591C178.921 145.027 183.671 154.454 188.212 163.983ZM204.374 163.491C211.649 160.737 218.919 157.968 226.182 155.181C227.883 154.529 229.844 154.034 231.44 153.16C234.379 151.552 233.878 150.922 232.872 147.799C231.781 144.409 230.52 141.077 229.201 137.771C229.021 137.321 231.347 137.375 231.57 137.933C233.118 141.811 235.813 146.683 236.166 150.868C236.372 153.314 234.94 153.28 232.728 154.131C223.966 157.504 215.194 160.85 206.413 164.173C205.876 164.376 203.754 163.726 204.374 163.491ZM217.248 124.215C217.934 123.948 220.1 124.781 218.843 125.27C209.286 128.991 200.099 133.585 191.44 139.092C188.183 141.163 185.615 143.03 186.886 147.142C187.488 149.09 188.325 151.002 189.057 152.905C190.406 156.411 191.982 159.787 193.724 163.114C194.078 163.79 191.707 163.764 191.338 163.059C189.151 158.881 187.331 154.622 185.675 150.209C184.026 145.815 182.705 142.975 187.016 139.799C196.05 133.14 206.843 128.266 217.248 124.215ZM28.2903 173.388C23.9452 176.354 19.5999 179.321 15.2547 182.287C13.9503 183.178 12.5014 181.195 13.8111 180.301C18.1565 177.334 22.5015 174.368 26.8467 171.401C28.1511 170.511 29.5999 172.493 28.2903 173.388ZM23.9889 182.814C21.5273 184.348 19.0655 185.883 16.6039 187.417C15.2689 188.249 13.8152 186.269 15.1604 185.431C17.622 183.896 20.0839 182.362 22.5454 180.828C23.8804 179.996 25.3343 181.976 23.9889 182.814ZM81.6566 176.681C65.3987 183.918 48.6342 190.589 33.6296 200.279C32.3059 201.134 30.854 199.153 32.1861 198.293C46.922 188.776 63.308 182.163 79.2745 175.056C96.8668 167.225 114.459 159.394 132.051 151.563C133.499 150.919 134.386 153.21 132.944 153.852L81.6566 176.681ZM139.861 204.856C123.638 209.789 108.283 216.973 92.9995 224.243C77.2538 231.734 61.5101 239.229 45.7654 246.721C44.3348 247.402 43.4514 245.109 44.873 244.433C60.6177 236.94 76.3614 229.445 92.107 221.955C107.391 214.684 122.745 207.5 138.968 202.567C140.473 202.11 141.375 204.395 139.861 204.856Z" fill="url(#paint0_linear_55_279)"/>
<defs>
<linearGradient id="paint0_linear_55_279" x1="104.326" y1="-28.3089" x2="334.081" y2="133.168" gradientUnits="userSpaceOnUse">
<stop stop-color="#38A6A1"/>
<stop offset="1" stop-color="#EF4F41"/>
</linearGradient>
</defs>
</svg>
