<svg width="354" height="314" viewBox="0 0 354 314" fill="none" xmlns="http://www.w3.org/2000/svg">
<path d="M171.543 62.1334C183.226 69.2978 195.089 76.1635 207.094 82.765C213.44 86.2615 219.835 89.6657 226.25 93.0312C232.686 96.3563 239.137 99.6506 245.628 102.864C258.601 109.308 271.669 115.551 284.8 121.647L304.534 130.704C307.816 132.2 311.082 133.712 314.272 135.319C315.864 136.124 317.442 136.953 318.944 137.836C319.692 138.277 320.424 138.735 321.079 139.209C321.368 139.418 321.631 139.632 321.848 139.83C320.591 142.669 319.328 145.51 318.048 148.341L304.44 141.804L316.548 151.596C315.484 153.918 314.424 156.244 313.33 158.54C311.376 162.487 309.348 166.458 307.314 170.428C305.53 169.145 304.61 167.7 303.795 166.032C302.732 168.455 301.644 170.867 300.546 173.273C301.501 174.372 302.698 175.444 304.242 176.434C304.028 176.855 303.811 177.276 303.597 177.697L294.502 195.36C293.201 194.326 292.397 193.187 291.723 191.914L289.633 196.2L288.35 198.745C289.173 199.658 290.168 200.549 291.398 201.388L283.885 215.978L281.671 220.244C280.48 219.182 279.743 218.012 279.093 216.703C277.897 218.95 276.685 221.189 275.461 223.422C276.273 224.412 277.269 225.385 278.526 226.303L264.049 254.194L254.054 273.262L251.547 278.025C250.711 279.638 249.9 281.126 248.989 282.673C248.424 283.64 247.837 284.603 247.256 285.567L230.549 279.389L245.39 288.635C244.923 289.393 244.455 290.15 243.983 290.904C243.663 290.844 243.324 290.77 242.977 290.68C242.241 290.494 241.486 290.266 240.733 290.028C239.226 289.547 237.716 289.007 236.221 288.437C234.727 287.864 233.239 287.262 231.8 286.614C230.403 285.982 228.9 285.21 227.45 284.511C221.6 281.655 215.769 278.762 209.952 275.839C198.317 269.995 186.74 264.036 175.231 257.946C153.097 246.229 131.15 234.152 109.471 221.604L108.899 224.647C130.238 237.169 151.795 249.328 173.641 260.95C185.155 267.081 196.739 273.08 208.381 278.964C214.201 281.907 220.037 284.821 225.891 287.696C227.374 288.416 228.767 289.14 230.336 289.858C231.866 290.551 233.397 291.175 234.944 291.772C236.492 292.367 238.049 292.929 239.644 293.443C240.443 293.698 241.247 293.943 242.09 294.16C242.511 294.269 242.943 294.368 243.408 294.455C243.641 294.497 243.884 294.536 244.16 294.563C244.334 294.576 244.519 294.592 244.751 294.586C247.691 297.326 250.462 300.307 253.324 303.266C254.884 304.875 256.468 306.481 258.143 308.021L263.13 312.503L264.441 313.681L265.526 312.251C266.117 311.472 266.746 310.677 267.376 309.936C267.691 309.567 268.013 309.204 268.323 308.887C268.576 308.624 269.048 308.215 269.422 307.823C270.98 306.246 272.275 304.423 273.286 302.461C274.319 300.514 274.974 298.334 275.488 296.371C276.009 294.381 276.544 292.821 277.697 291.551C277.982 291.222 278.28 290.936 278.631 290.608L279.77 289.576C280.537 288.873 281.327 288.141 282.076 287.296C282.823 286.455 283.526 285.505 284.081 284.461C284.634 283.427 285.038 282.28 285.306 281.212C286.363 277.058 286.682 272.986 288.213 269.643C289.629 266.318 292.689 263.992 296.007 261.639C297.661 260.452 299.393 259.232 301.018 257.741C302.637 256.264 304.154 254.431 305.104 252.271C306.063 250.128 306.455 247.909 306.739 245.838C307.021 243.755 307.215 241.778 307.636 239.95C308.408 236.356 310.662 233.308 313.416 230.509C316.157 227.693 319.381 225.07 322.229 221.894C325.045 218.751 327.563 215.366 329.695 211.712C331.807 208.057 333.612 204.14 334.494 199.839C334.618 199.307 334.704 198.763 334.772 198.213C334.854 197.662 334.921 197.119 334.96 196.596C335.048 195.539 335.103 194.5 335.156 193.478C335.262 191.436 335.364 189.459 335.687 187.587C335.994 185.715 336.588 183.991 337.419 182.221C338.245 180.469 339.236 178.691 340.237 176.961C342.259 173.496 344.509 170.155 346.92 166.925C347.501 166.165 348.22 165.196 348.766 164.244C349.334 163.278 349.815 162.26 350.209 161.226C351 159.152 351.449 157.062 351.882 155.065C352.103 154.054 352.301 153.086 352.547 152.13C352.795 151.15 353.057 150.141 353.287 149.106C353.518 148.07 353.721 147.007 353.828 145.88C353.921 144.753 353.972 143.547 353.532 142.139L353.186 141.032L351.981 141.022C349.682 141.004 347.332 140.921 345.052 140.725C343.892 140.624 342.827 140.494 341.681 140.283L338.198 139.659C335.862 139.247 333.515 138.852 331.132 138.55C329.941 138.396 328.74 138.271 327.513 138.195C326.751 138.153 325.99 138.122 325.186 138.153C325.164 138.12 325.139 138.081 325.12 138.05C324.884 137.724 324.664 137.499 324.448 137.288C324.021 136.883 323.612 136.567 323.205 136.272C322.392 135.687 321.586 135.19 320.776 134.714C319.157 133.768 317.528 132.92 315.891 132.097C312.617 130.458 309.314 128.939 306.01 127.444L286.279 118.447C273.154 112.393 260.098 106.195 247.143 99.8C221.561 87.1515 196.335 73.7687 171.94 58.9757L171.661 61.2L171.543 62.1334ZM327.315 141.138C328.443 141.224 329.587 141.36 330.734 141.526C333.028 141.851 335.331 142.271 337.635 142.713L341.111 143.389C342.283 143.624 343.559 143.802 344.748 143.921C346.696 144.116 348.617 144.216 350.552 144.282C350.567 144.678 350.55 145.114 350.498 145.555C350.4 146.462 350.217 147.411 350.001 148.368C349.783 149.328 349.528 150.297 349.27 151.298C349.004 152.321 348.786 153.355 348.566 154.339C348.126 156.331 347.691 158.25 347.012 159.996C346.902 160.28 346.774 160.553 346.651 160.828L346.832 159.854L333.197 159.261L345.27 163.329C344.939 163.816 344.582 164.295 344.157 164.849C341.661 168.155 339.319 171.593 337.203 175.178C336.15 176.981 335.135 178.769 334.207 180.71C333.283 182.63 332.521 184.803 332.16 186.969C331.778 189.128 331.668 191.245 331.55 193.282C331.492 194.301 331.434 195.303 331.346 196.284C331.323 196.578 331.28 196.851 331.243 197.13C328.078 195.803 324.755 195.081 321.494 194.969C324.963 196.163 328.073 198.048 330.623 200.378C329.763 203.652 328.262 206.832 326.5 209.836C325.666 211.251 324.749 212.621 323.787 213.96C320.516 211.951 316.981 210.538 313.392 209.778C316.668 211.52 319.549 213.802 321.922 216.424C321.121 217.426 320.301 218.411 319.443 219.359C316.819 222.269 313.662 224.81 310.68 227.831C309.419 229.132 308.203 230.54 307.125 232.094C302.988 229.308 298.526 227.153 293.926 225.682C298.246 228.293 302.094 231.51 305.349 235.141C304.75 236.413 304.267 237.751 303.967 239.104C303.128 242.917 303.154 246.577 302.165 249.604L287.835 244.58L300.573 252.745C298.95 254.994 296.465 256.83 293.881 258.684C292.224 259.887 290.5 261.134 288.901 262.664C288.062 263.456 287.27 264.367 286.57 265.35C282.566 262.709 278.246 260.696 273.803 259.366C278 261.814 281.738 264.871 284.885 268.344C283.118 272.462 282.859 276.647 281.902 280.34C281.849 280.563 281.774 280.767 281.711 280.98L273.349 275.407L280.392 283.794C280.116 284.2 279.815 284.598 279.47 284.984C278.867 285.673 278.162 286.339 277.427 287.02L276.3 288.052C276.065 288.272 275.818 288.515 275.574 288.767L266.623 279.579L273.505 291.676C273.397 291.894 273.291 292.113 273.199 292.334C272.736 293.42 272.449 294.494 272.187 295.483C271.673 297.469 271.145 299.235 270.271 300.914C269.423 302.591 268.32 304.137 267.025 305.485C266.699 305.837 266.394 306.096 265.937 306.568C265.538 306.986 265.188 307.394 264.845 307.806C264.545 308.168 264.258 308.53 263.973 308.893L260.287 305.661C258.661 304.209 257.092 302.666 255.528 301.099C252.767 298.328 250.021 295.465 247.066 292.76C248.57 290.367 250.049 287.964 251.498 285.527L262.706 295.09L253.438 282.188C253.895 281.362 254.34 280.532 254.76 279.725L257.281 274.967L261.251 267.438C264.007 267.79 266.661 268.016 269.308 268.429C272.083 268.865 274.851 269.439 277.468 270.59C275.168 268.88 272.496 267.651 269.811 266.581C267.551 265.681 265.229 264.917 263 264.121L267.328 255.915L279.677 232.271L287.846 234.037L281.235 229.288L287.27 217.731C288.522 215.317 289.759 212.896 291.005 210.479C295.961 212.998 301.174 214.834 306.461 215.943C301.431 213.635 296.795 210.673 292.688 207.211C293.613 205.415 294.542 203.62 295.464 201.823L308.593 207.245L297.011 198.818C299.964 193.051 302.907 187.279 305.849 181.506C310.479 182.73 315.163 183.545 319.829 183.941C315.528 182.369 311.415 180.438 307.528 178.211C309.008 175.291 310.492 172.386 311.971 169.473L325.804 170.699L313.591 166.266C314.615 164.234 315.637 162.196 316.651 160.135C318.413 156.415 320.11 152.685 321.782 148.948L336.801 151.936L323.182 145.809C323.882 144.231 324.579 142.65 325.275 141.068C325.926 141.054 326.626 141.083 327.315 141.138ZM93.2419 206.755L66.9085 192.367C68.5881 191.747 73.0156 190.87 74.6957 190.25C79.2301 192.499 88.3317 197.298 96.3186 201.683L101.326 193.791L101.73 193.154L102.48 193.055L123.666 190.245L132.327 180.823C131.132 180.308 129.941 179.781 128.759 179.236C124.827 177.421 120.956 175.475 117.169 173.378C115.288 172.306 113.4 171.247 111.539 170.14C109.696 169.004 107.834 167.901 106.029 166.7C102.396 164.342 98.8403 161.856 95.469 159.092C99.4602 160.842 103.319 162.785 107.151 164.77C109.08 165.737 110.963 166.784 112.874 167.78L118.553 170.863C122.329 172.934 126.069 175.071 129.794 177.248C131.053 177.984 132.307 178.731 133.558 179.485L133.648 179.387L133.912 179.1L134.281 178.96L150.053 172.966L148.184 168.83L146.263 172.878C146.262 172.596 146.255 172.316 146.242 172.037C146.175 170.84 145.998 169.67 145.727 168.521C145.459 167.378 145.092 166.257 144.619 165.162L145.481 162.848L144.767 161.269L144.638 160.984L144.62 160.669L143.058 134.203L143.043 133.955L143.1 133.709L144.843 126.213C144.463 126.021 144.078 125.839 143.699 125.645L137.955 122.612C136.063 121.556 134.15 120.542 132.283 119.437C128.525 117.275 124.813 115.023 121.229 112.52C125.354 113.965 129.349 115.663 133.299 117.449C135.287 118.319 137.227 119.28 139.189 120.198L145.007 123.089C145.175 123.175 145.34 123.267 145.508 123.353L147.652 114.131L117.53 96.8012C118.803 96.4108 122.332 94.6659 123.604 94.2755C131.507 98.282 140.295 103.033 149.12 107.815L150.595 101.474L146.405 65.9392L146.399 65.8832L146.393 65.7662L146.315 64.006C145.135 63.347 143.956 62.6766 142.781 61.9763C143.956 62.2076 145.112 62.4988 146.262 62.8139L145.981 56.5205L142.194 54.6645L137.356 52.3929L127.734 47.7044L108.702 37.9994L89.8104 28.0883L80.3756 23.1336L75.6536 20.7021C74.8566 20.2989 74.0922 19.9091 73.3203 19.5427L72.4526 19.1573L67.4429 27.813L65.1229 32.3133L62.912 36.9536L53.9155 55.5165L35.3885 92.3421C23.1815 116.328 11.1315 140.372 0.32836 164.978L46.1181 188.336L69.728 200.365C77.0515 204.08 84.3515 207.839 91.6924 211.523L93.2419 206.755ZM87.386 169.007C86.2949 171.22 85.108 173.375 83.8348 175.477C82.5622 177.581 81.2074 179.634 79.7561 181.629C78.2891 183.614 76.7631 185.564 74.9803 187.358C75.7395 184.944 76.7558 182.686 77.8308 180.464C78.9219 178.251 80.1088 176.096 81.3786 173.991C82.6478 171.886 84.0029 169.833 85.4542 167.838C86.9199 165.852 88.4476 163.903 90.2331 162.111C89.477 164.526 88.4623 166.785 87.386 169.007ZM142.403 165.118C142.407 165.302 142.408 165.486 142.417 165.669C142.484 166.866 142.661 168.036 142.935 169.183C143.209 170.331 143.576 171.456 144.053 172.556C144.225 172.942 144.415 173.325 144.616 173.705L92.5831 145.084C92.5831 145.084 97.3711 143.705 99.804 143.434C117.237 152.308 125.619 156.575 142.403 165.118ZM91.737 156.401C91.221 156.047 90.8972 155.638 90.6179 155.217C90.3502 154.792 90.1546 154.346 90.0206 153.883C89.8864 153.42 89.8164 152.938 89.8185 152.436C89.8312 151.93 89.8906 151.412 90.1432 150.838C90.6615 151.191 90.9865 151.599 91.2649 152.021C91.5326 152.446 91.7282 152.892 91.8596 153.356C91.9913 153.82 92.0614 154.302 92.0593 154.804C92.0455 155.309 91.9875 155.828 91.737 156.401ZM110.227 120.322C109.148 122.548 108.008 124.729 106.813 126.88C105.619 129.032 104.373 131.155 103.058 133.249C101.726 135.335 100.364 137.41 98.7595 139.387C99.2854 136.894 100.123 134.533 101.058 132.218C102.009 129.91 103.097 127.666 104.303 125.487C105.508 123.308 106.835 121.196 108.287 119.167C109.753 117.146 111.313 115.186 113.15 113.421C112.328 115.832 111.291 118.088 110.227 120.322ZM115.397 104.851C115.688 105.292 115.921 105.741 116.107 106.211C116.294 106.68 116.437 107.166 116.531 107.686C116.614 108.212 116.674 108.756 116.585 109.409C115.979 109.147 115.551 108.758 115.179 108.336C114.818 107.908 114.537 107.431 114.332 106.924C114.127 106.416 114.001 105.877 113.966 105.318C113.942 104.756 113.983 104.179 114.243 103.57C114.76 103.98 115.094 104.413 115.397 104.851ZM97.017 100.002C93.6673 98.9236 90.4496 97.5919 87.2794 96.1697C84.1013 94.7629 80.9886 93.2303 77.915 91.6232C74.8449 90.0096 71.8113 88.3254 68.8443 86.5143C65.8695 84.7185 62.9407 82.8344 60.143 80.699C63.491 81.7809 66.7078 83.114 69.8786 84.5354C73.0574 85.9416 76.1697 87.4745 79.245 89.0782C82.317 90.6884 85.35 92.373 88.3175 94.1833C91.293 95.9784 94.2209 97.864 97.017 100.002ZM135.266 73.2142C134.276 75.3532 133.21 77.4435 132.075 79.4958C130.94 81.5484 129.74 83.5651 128.458 85.5425C127.16 87.5114 125.818 89.4606 124.224 91.2924C124.751 88.9205 125.57 86.6854 126.469 84.4907C127.386 82.3041 128.422 80.1771 129.563 78.1075C130.702 76.0373 131.949 74.0266 133.31 72.0859C134.686 70.1541 136.143 68.2714 137.871 66.564C137.173 68.8913 136.241 71.0664 135.266 73.2142ZM139.555 55.7678C139.89 56.1674 140.157 56.5979 140.363 57.0561C140.57 57.5143 140.718 57.9989 140.798 58.5148C140.867 59.0356 140.893 59.5755 140.738 60.198C140.168 59.9053 139.779 59.5297 139.432 59.135C139.097 58.7354 138.83 58.3049 138.621 57.8476C138.412 57.3906 138.264 56.9057 138.184 56.3902C138.114 55.8698 138.089 55.3294 138.246 54.7061C138.819 54.9979 139.209 55.3727 139.555 55.7678ZM76.3019 29.8722C75.865 29.1331 75.498 28.367 75.1909 27.5776C74.8835 26.7883 74.6385 25.9747 74.463 25.1342C74.2981 24.2896 74.1785 23.4274 74.2463 22.4926C74.9261 23.1373 75.4185 23.8548 75.866 24.5897C76.3029 25.3289 76.6698 26.0949 76.9748 26.8855C77.2797 27.6757 77.5251 28.4893 77.7002 29.3297C77.8638 30.1748 77.985 31.0365 77.9194 31.9705C77.2414 31.325 76.7499 30.6068 76.3019 29.8722ZM94.1956 36.9119C97.011 38.1359 99.7593 39.487 102.471 40.9084C105.179 42.3361 107.848 43.8385 110.451 45.4664C113.062 47.079 115.625 48.7818 118.056 50.7375C115.069 49.8403 112.215 48.6906 109.408 47.4503C106.593 46.2254 103.844 44.875 101.135 43.4501C98.4284 42.0187 95.7591 40.517 93.1566 38.8884C90.5461 37.2751 87.9817 35.5734 85.5494 33.6211C88.535 34.5212 91.3885 35.6724 94.1956 36.9119ZM65.1265 53.236C66.0069 50.9991 67.0348 48.8271 68.1895 46.7247C69.3435 44.6221 70.6282 42.5914 72.0461 40.6506C73.4781 38.7191 75.0108 36.8552 76.8238 35.2013C76.0149 37.518 75.0058 39.6772 73.9779 41.8192C72.936 43.9518 71.843 46.0436 70.7035 48.1102C69.5646 50.1772 68.3827 52.2202 67.1391 54.2419C65.8786 56.2558 64.5967 58.2649 63.0764 60.189C63.5067 57.7724 64.2627 55.4805 65.1265 53.236ZM132.492 52.2503L112.127 93.3969C111.993 92.2297 111.806 91.075 111.539 89.9398C111.212 88.5513 110.788 87.1861 110.255 85.8469C110.254 85.8456 110.253 85.8444 110.253 85.8432C114.815 77.365 120.72 63.2558 125.192 55.1573C128.287 54.0847 130.624 52.8989 132.492 52.2503ZM62.9159 63.6323C75.4327 69.7952 95.2079 80.5262 108.13 86.944C108.263 88.1804 108.46 89.4018 108.746 90.6019C109.064 91.9366 109.475 93.2493 109.98 94.5397L54.4295 66.2835C56.3422 65.7563 62.9159 63.6323 62.9159 63.6323ZM54.9421 75.3365C54.6175 74.783 54.3645 74.2065 54.1726 73.6105C53.9805 73.0145 53.8521 72.3984 53.7945 71.7591C53.748 71.1166 53.7476 70.4591 53.9386 69.7404C54.5111 70.2143 54.8925 70.7498 55.2278 71.3001C55.5521 71.8537 55.8054 72.4301 55.9948 73.027C56.1844 73.6239 56.3131 74.24 56.3704 74.8793C56.416 75.5222 56.4176 76.1793 56.2288 76.897C55.6584 76.4223 55.2786 75.8864 54.9421 75.3365ZM42.6246 100.364C43.533 97.987 44.5877 95.6721 45.7692 93.424C46.95 91.1756 48.2613 88.9953 49.7066 86.9011C51.1663 84.816 52.7277 82.7949 54.5747 80.9751C53.7481 83.4325 52.7162 85.7385 51.6638 88.0273C50.5971 90.3071 49.4773 92.5476 48.3086 94.7628C47.1408 96.9783 45.9283 99.1704 44.6522 101.34C43.3593 103.502 42.0429 105.659 40.4862 107.73C40.9476 105.178 41.7331 102.748 42.6246 100.364ZM108.925 100.855L88.1615 141.431C88.1514 141.27 88.1447 141.108 88.1324 140.948C88.0084 139.511 87.7751 138.101 87.4478 136.713C87.1574 135.477 86.7753 134.264 86.3221 133.067C90.8788 124.594 96.4614 111.466 100.943 103.334C103.736 102.551 108.925 100.855 108.925 100.855ZM40.1862 110.459C53.8466 117.207 70.0759 126.09 83.9594 133.024C83.9624 133.063 83.9634 133.102 83.9664 133.14C84.0907 134.577 84.3237 135.987 84.6548 137.375C84.9852 138.762 85.4092 140.127 85.943 141.467C86.0091 141.629 86.0816 141.79 86.1507 141.952L31.1242 113.923C33.9846 112.712 40.1862 110.459 40.1862 110.459ZM29.0004 124.832C28.6197 124.151 28.3101 123.445 28.0609 122.72C27.8117 121.994 27.6255 121.246 27.5104 120.474C27.4059 119.699 27.3472 118.907 27.4789 118.051C28.1061 118.648 28.5432 119.31 28.9346 119.988C29.3154 120.669 29.625 121.374 29.8717 122.101C30.1183 122.828 30.3046 123.576 30.4197 124.348C30.5232 125.124 30.5832 125.914 30.4537 126.769C29.8286 126.172 29.3927 125.509 29.0004 124.832ZM42.9916 131.859C44.7344 132.588 46.4321 133.405 48.1532 134.174L53.2545 136.608C56.6398 138.261 59.9787 140.009 63.2876 141.825C66.5955 143.643 69.8688 145.537 73.0336 147.675C69.363 146.621 65.8163 145.289 62.3204 143.847C58.8253 142.403 55.3767 140.858 51.9905 139.185C50.3083 138.327 48.6171 137.486 46.9472 136.603C45.2914 135.692 43.6161 134.821 41.9888 133.854C38.7114 131.967 35.4881 129.975 32.4079 127.717C36.0324 128.919 39.5308 130.353 42.9916 131.859ZM17.9705 149.134C18.8384 146.854 19.7603 144.598 20.7754 142.37C21.7895 140.143 22.9001 137.947 24.162 135.819C25.4381 133.701 26.8336 131.628 28.5762 129.804C27.8793 132.224 27.0487 134.514 26.1942 136.802C25.3262 139.082 24.4043 141.338 23.3859 143.564C22.3681 145.789 21.2578 147.987 19.9956 150.114C18.7181 152.231 17.3243 154.305 15.5851 156.13C16.2848 153.712 17.1176 151.423 17.9705 149.134ZM7.54064 163.066C10.0264 162.088 13.3711 160.029 15.8566 159.052C28.3152 164.804 46.5761 175.148 59.5549 181.311C59.5309 182.443 59.555 183.57 59.6614 184.69C59.7955 186.11 60.0256 187.521 60.3676 188.921C60.4003 189.05 60.4384 189.179 60.4724 189.308L7.54064 163.066ZM62.6075 188.713C62.6846 187.273 62.6499 185.844 62.5191 184.423C62.4021 183.149 62.1913 181.884 61.9052 180.625C65.2182 171.649 72.1114 157.352 76.0942 149.865C78.0131 149.404 82.2587 148.386 84.1775 147.926L62.5687 189.206C62.5809 189.041 62.5973 188.877 62.6075 188.713ZM141.099 46.5913C141.994 47.7614 142.882 48.9362 143.803 50.0854C144.005 50.3389 144.205 50.5942 144.406 50.8492C143.052 50.2982 141.695 49.7559 140.331 49.2309C139.31 48.8384 138.284 48.4587 137.256 48.0844L136.546 40.449C137.174 41.323 137.801 42.1971 138.444 43.0597C139.313 44.2497 140.2 45.4252 141.099 46.5913ZM146.849 33.9824C144.688 34.7915 142.552 35.6504 140.429 36.5394L145.036 31.7942C145.633 32.5311 146.241 33.2569 146.849 33.9824ZM151.872 40.2063L159.725 52.2815C159.092 53.1031 158.451 53.9196 157.838 54.7547C156.853 56.0706 155.911 57.4144 154.952 58.7475C154.02 60.0973 153.065 61.4326 152.15 62.7943C151.753 63.3889 151.35 63.98 150.948 64.5724C150.882 63.4162 150.811 62.2601 150.717 61.1054C150.573 59.0599 150.417 57.0154 150.223 54.9732C150.604 52.2888 150.937 49.597 151.238 46.9C151.491 44.6759 151.7 42.4442 151.872 40.2063ZM151.081 12.2429C151.085 13.4191 151.1 14.5941 151.159 15.7626C151.274 18.0642 151.498 20.3503 151.797 22.6257C151.857 25.2715 152.003 27.915 152.299 30.5538C152.396 31.5235 152.537 32.492 152.685 33.4601L152.501 37.2074L138.433 21.8179L151.178 8.75634C151.196 8.80808 151.212 8.8603 151.229 8.91172C151.123 10.0307 151.095 11.1377 151.081 12.2429ZM153.598 16.813L153.269 14.5185C154.063 16.5925 154.882 18.6558 155.718 20.7104C155.987 21.3526 156.26 21.9931 156.531 22.6348L160.538 35.2319L154.203 35.4079C154.241 35.102 154.283 34.7963 154.32 34.4905C154.45 33.154 154.576 31.8174 154.629 30.4829C154.765 27.8136 154.75 25.1487 154.648 22.486L154.644 22.3935L154.634 22.3271C154.351 20.4805 153.999 18.6432 153.598 16.813ZM166.46 58.8894C166.46 58.8286 166.458 58.7683 166.458 58.7075C166.471 58.7231 166.484 58.7391 166.497 58.755L166.46 58.8894ZM154.725 4.40226L169.427 23.9685L169.452 47.9699L166.868 57.4003C166.725 57.1852 166.581 56.9709 166.437 56.7563C166.417 55.4466 166.385 54.1384 166.326 52.8337C166.259 50.8178 166.115 48.8111 166.003 46.8008C165.843 44.7961 165.722 42.7866 165.532 40.7857C165.336 38.7854 165.181 36.78 164.953 34.7837L164.93 34.5795L164.837 34.373C163.736 31.9045 162.656 29.4259 161.488 26.9879C160.359 24.5317 159.161 22.1078 157.959 19.6849C156.325 16.471 154.652 13.2746 152.869 10.1288L154.725 4.40226ZM167.208 0.110084L167.347 17.8823C165.827 16.0695 164.296 14.2665 162.734 12.4881C160.839 10.3169 158.915 8.16921 156.941 6.06196L155.576 4.32306L161.952 4.28231L167.208 0.110084ZM164.808 54.3242C163.683 52.6559 162.501 51.03 161.349 49.3819C159.569 46.9158 157.757 44.4733 155.923 42.0474L153.706 38.5077L161.401 36.3797L164.808 54.3242ZM160.003 52.4471L164.411 58.1793L166.779 59.4529L153.446 65.2469L152.287 65.7506C152.706 65.0645 153.123 64.3766 153.545 63.693C154.405 62.2963 155.224 60.8734 156.066 59.4648C156.881 58.0396 157.714 56.625 158.502 55.1826C158.923 54.4309 159.318 53.6613 159.724 52.9003L160.003 52.4471ZM146.476 35.0812L150.969 40.2967L148.613 53.3405L147.962 52.4473C147.094 51.2566 146.181 50.1013 145.293 48.9264C144.406 47.7501 143.488 46.5991 142.575 45.4433C141.667 44.2835 140.747 43.1336 139.808 41.9981C139.246 41.3036 138.668 40.6209 138.096 39.9344L146.476 35.0812ZM158.684 85.3392C158.067 87.9361 157.547 90.5465 157.072 93.1629C156.453 96.502 155.944 99.8561 155.46 103.214C155.01 106.576 154.583 109.942 154.266 113.323C154.217 113.829 154.173 114.335 154.127 114.841L153.765 117.114L153.31 119.964C152.836 118.034 152.337 116.109 151.819 114.188L151.573 112.731L154.099 101.976L154.169 101.677L154.134 101.369L154.113 101.193L154.222 100.75L153.354 94.6249L150.615 70.9333C151.764 72.549 152.93 74.1538 154.14 75.7275C154.963 76.8224 155.824 77.8901 156.684 78.9593C157.003 79.3492 157.326 79.7356 157.649 80.1222C157.689 80.3306 157.727 80.5399 157.768 80.7486C158.061 82.2812 158.37 83.8108 158.684 85.3392ZM167.291 60.8514C163.492 63.7654 159.805 66.8048 156.147 69.8772L155.809 70.1609L155.893 70.6347C156.347 73.1967 156.816 75.7554 157.303 78.3108C156.647 77.1761 155.992 76.041 155.3 74.931C154.06 72.8878 152.761 70.8854 151.435 68.9009C152.465 68.3503 153.487 67.783 154.511 67.2191C155.833 66.4858 157.134 65.7131 158.437 64.9447C158.837 64.7034 159.234 64.4574 159.633 64.2131L167.562 60.0573L167.826 60.373L167.291 60.8514ZM146.518 134.255L151.302 113.887C151.626 116.333 151.978 118.773 152.367 121.205C152.906 124.574 153.493 127.932 154.112 131.285C153.619 133.79 153.178 136.305 152.708 138.814C152.27 141.382 151.813 143.946 151.398 146.518L151.357 146.775L151.442 146.991C152.738 150.282 154.064 153.562 155.439 156.823C156.816 160.084 158.23 163.33 159.749 166.538L158.425 168.774L158.043 168.921L157.612 169.087L157.251 168.998C156.664 168.6 156.069 168.219 155.468 167.851C154.029 166.995 152.546 166.228 151.025 165.536L150.243 165.18L147.989 160.161L146.518 134.255ZM153.653 147.182L162.698 135.159L159.754 144.878L158.533 148.539L158.52 148.581L158.516 148.624L157.647 159.661C157.297 158.57 156.95 157.477 156.59 156.39C156.139 155.028 155.674 153.671 155.207 152.315L155.215 152.298L153.653 147.182ZM160.871 133.666L153.693 144.01C153.994 142.39 154.29 140.77 154.59 139.15C155.02 136.601 155.48 134.058 155.885 131.505L155.889 131.502L157.99 130.206L165.54 125.547L165.579 125.582C165.583 125.56 165.587 125.538 165.591 125.516L167.227 124.506L161.72 132.443L160.871 133.666ZM156.697 123.698L155.201 128.021C154.776 126.124 154.338 124.23 153.886 122.339C154.608 119.417 155.203 116.477 155.739 113.529C156.359 110.19 156.867 106.836 157.354 103.479C157.805 100.116 158.233 96.7507 158.551 93.3698C158.661 92.2372 158.759 91.1025 158.85 89.9673L159.163 88.0418L160.206 92.5065C160.818 95.2947 161.45 98.0792 162.121 100.856C162.293 101.569 162.478 102.279 162.655 102.992L163.142 105.077L160.133 113.77L158.579 118.26L156.707 123.67C156.654 123.68 156.602 123.688 156.549 123.699C156.599 123.699 156.648 123.697 156.697 123.698ZM153.334 170.483C153.033 169.762 152.738 169.039 152.44 168.317C153.197 168.672 153.964 169.008 154.741 169.322C156.222 169.894 157.724 170.424 159.327 170.749L159.526 170.934L159.486 171.139L156.798 179.405C156.267 177.928 155.697 176.469 155.141 175.003C154.537 173.497 153.958 171.98 153.334 170.483ZM149.71 176.684L152.579 175.601L154.822 181.076L146.237 178.681L149.71 176.684ZM128.497 197.89L143.35 182.143L156.517 182.637L156.469 182.808L155.399 185.571L154.53 185.973L149.065 186.89L143.919 194.859L128.497 197.89ZM103.669 205.79L109.945 198.92L114.504 201.77L106.829 207.626L101.825 211.445L90.8647 219.808L99.6094 210.235L103.669 205.79ZM107.829 225.01L103.34 223.917L100.918 240.359L102.813 255.039L100.397 255.264L99.004 240.292L92.8786 223.304L97.9849 222.481L102.277 217.175C103.099 216.316 103.921 215.457 104.738 214.594C106.509 212.737 108.257 210.86 110.002 208.981C109.827 210.933 109.657 212.886 109.481 214.839L109.326 216.563L107.829 225.01ZM131.975 204.933L125.404 204.194L118.368 207.693L114.627 212.317L112.388 212.526L114.205 207.866C114.728 206.536 115.239 205.202 115.746 203.866L116.816 201.555L137.25 199.654L131.975 204.933ZM74.6579 223.157L82.3415 212.117L85.4314 226.206L74.6579 223.157ZM77.8424 239.427L73.5189 233.331L74.0419 230.09L82.1222 232.881C81.9802 233.096 81.8335 233.308 81.6926 233.524C80.4631 235.376 79.238 237.232 78.0432 239.109C77.9745 239.214 77.9105 239.322 77.8424 239.427ZM78.9037 251.294L85.1515 257.706L72.1218 249.505L75.587 249.183L76.9311 246.274L81.2617 244.03L85.2342 232.1C85.2361 233.456 85.2424 234.811 85.2382 236.166C85.2597 238.714 85.2879 241.261 85.3452 243.809C85.3967 246.179 85.475 248.55 85.5708 250.92L85.4787 253.091L78.9037 251.294ZM92.801 255.971L86.6347 258.264L86.4652 253.155C86.4988 252.589 86.5351 252.024 86.5681 251.458C86.7018 248.911 86.8091 246.364 86.8918 243.818C86.9758 241.271 87.0313 238.724 87.0797 236.177C87.0863 235.283 87.0998 234.389 87.112 233.495C87.6477 235.595 88.2082 237.687 88.8142 239.766C89.4414 242.005 90.1365 244.224 90.8158 246.447C91.4984 248.559 92.1627 250.677 92.887 252.775L92.801 255.971ZM73.0192 247.176L72.095 248.115L71.7299 236.004L64.7238 223.59L72.9882 205.713C73 205.719 73.0119 205.725 73.0238 205.731L72.2316 228.724L73.8247 245.848C73.5553 246.29 73.2858 246.732 73.0192 247.176ZM164.121 91.4275L167.958 99.937L169.627 105.355L164.283 107.346C163.985 105.098 163.664 102.854 163.311 100.618C162.776 97.2285 162.193 93.8489 161.575 90.4764C160.949 87.1053 160.314 83.736 159.617 80.3793C158.97 77.1615 158.271 73.9537 157.561 70.7483C160.719 67.7694 163.851 64.7609 166.894 61.6535L166.357 71.6017L166.271 73.2121L166.527 74.7721L167.561 81.051L170.229 84.6804L164.121 91.4275ZM135.82 181.927L140.015 180.343L138.472 182.542L138.064 183.124L131.384 192.648L126.727 191.773L135.82 181.927ZM92.9653 255.937L92.801 255.971L92.9526 254.88C92.9543 255.232 92.957 255.584 92.9653 255.937ZM89.4982 232.336L90.7328 223.243L90.7461 223.145L91.001 221.269C91.7349 224.725 92.6989 228.101 93.7093 231.462C94.2409 233.132 94.7435 234.813 95.3164 236.47C95.8632 238.099 96.4132 239.727 97.0045 241.341C97.2742 244.084 97.617 246.821 98.0095 249.552C98.2048 250.939 98.4305 252.323 98.6678 253.707C98.7246 254.033 98.7872 254.358 98.8466 254.684L98.8487 254.713L94.5353 255.611C94.5989 254.686 94.6424 253.76 94.6978 252.835L94.7051 252.715L94.6575 252.547C94.138 250.711 93.5688 248.891 93.0038 247.069L89.4982 232.336ZM125.349 193.266L125.606 193.186L129.568 194.23L125.7 198.15L120.62 199.217L116.254 200.134L115.516 199.697L111.774 197.481L124.952 193.389L125.274 193.347L125.349 193.266ZM80.4182 211.224L74.3686 220.048L74.3898 207.958L80.4182 211.224ZM197.368 113.824C200.987 115.692 203.372 115.227 206.391 114.638C209.818 113.972 214.08 113.142 219.766 116.078C225.452 119.013 227.247 122.971 228.69 126.151C229.962 128.955 230.966 131.169 234.585 133.038C238.202 134.906 240.587 134.441 243.607 133.852C247.033 133.185 251.295 132.356 256.981 135.291C262.667 138.226 264.463 142.184 265.905 145.364C267.177 148.168 268.182 150.383 271.8 152.251C275.418 154.119 277.803 153.654 280.823 153.066C284.249 152.399 288.511 151.569 294.197 154.503C299.788 157.39 301.615 161.265 303.046 164.417C301.737 166.758 300.452 169.11 299.182 171.47C298.249 170.048 297.602 168.633 297.019 167.346C295.747 164.543 294.743 162.329 291.126 160.461C287.509 158.594 285.123 159.058 282.103 159.647C278.678 160.313 274.416 161.144 268.73 158.209C263.044 155.274 261.249 151.315 259.806 148.135C258.534 145.331 257.529 143.117 253.91 141.248C250.293 139.38 247.907 139.845 244.887 140.434C241.462 141.101 237.2 141.931 231.514 138.995C225.828 136.06 224.033 132.102 222.59 128.922C221.318 126.118 220.314 123.904 216.696 122.035C213.077 120.167 210.692 120.632 207.671 121.22C204.246 121.887 199.983 122.716 194.297 119.781C188.611 116.845 186.815 112.887 185.372 109.707C184.1 106.904 183.095 104.688 179.476 102.82C176.513 101.29 174.376 101.325 172.041 101.712L171.002 98.515C170.647 97.4364 170.299 96.3555 169.95 95.2754C173.239 94.6553 177.283 94.1443 182.547 96.8627C188.233 99.7985 190.029 103.756 191.472 106.937C192.744 109.74 193.749 111.955 197.368 113.824ZM259.406 177.501C263.024 179.369 265.409 178.904 268.428 178.316C271.854 177.649 276.117 176.819 281.802 179.754C286.83 182.35 288.814 185.745 290.204 188.695L287.063 194.925L286.449 196.185C285.693 194.945 285.135 193.722 284.624 192.597C283.353 189.793 282.349 187.579 278.732 185.712C275.113 183.844 272.728 184.308 269.709 184.896C266.284 185.563 262.021 186.394 256.335 183.459C250.649 180.523 248.854 176.565 247.411 173.385C246.139 170.581 245.135 168.366 241.516 166.498C237.898 164.63 235.513 165.095 232.494 165.683C229.069 166.35 224.806 167.18 219.12 164.245C213.434 161.31 211.639 157.352 210.196 154.172C208.925 151.368 207.92 149.153 204.302 147.285C200.683 145.417 198.298 145.881 195.278 146.47C191.853 147.136 187.589 147.967 181.903 145.031C176.217 142.095 174.422 138.137 172.978 134.957C172.065 132.944 171.284 131.235 169.579 129.739L173.011 124.249L173.158 124.014C176.546 126.625 177.928 129.653 179.078 132.187C180.35 134.991 181.354 137.206 184.974 139.075C188.592 140.942 190.977 140.478 193.997 139.89C197.423 139.223 201.686 138.392 207.372 141.328C213.058 144.263 214.853 148.221 216.296 151.402C217.568 154.205 218.572 156.42 222.191 158.288C225.809 160.156 228.193 159.692 231.213 159.104C234.639 158.437 238.901 157.606 244.586 160.541C250.272 163.477 252.068 167.435 253.51 170.615C254.783 173.418 255.788 175.633 259.406 177.501ZM247.012 202.751C250.631 204.62 253.016 204.155 256.035 203.567C259.461 202.9 263.723 202.069 269.409 205.004C274.523 207.645 276.487 211.11 277.88 214.095C277.709 214.468 277.531 214.836 277.362 215.21C276.34 217.426 275.333 219.651 274.335 221.88C273.434 220.488 272.802 219.107 272.231 217.847C270.96 215.044 269.956 212.83 266.339 210.962C262.721 209.094 260.336 209.559 257.317 210.147C253.891 210.814 249.628 211.645 243.943 208.71C238.257 205.774 236.461 201.816 235.019 198.636C233.747 195.832 232.742 193.617 229.123 191.749C225.506 189.881 223.121 190.346 220.101 190.934C216.675 191.601 212.413 192.432 206.728 189.497C201.042 186.561 199.247 182.603 197.804 179.423C196.532 176.619 195.527 174.404 191.909 172.536C188.291 170.668 185.905 171.133 182.885 171.721C179.46 172.388 175.196 173.218 169.511 170.282C167.273 169.128 165.645 167.814 164.396 166.452L161.341 159.306L162.097 150.407C164.526 152.715 165.674 155.211 166.685 157.438C167.957 160.242 168.962 162.457 172.581 164.325C176.2 166.193 178.585 165.729 181.605 165.141C185.031 164.474 189.294 163.644 194.979 166.579C200.665 169.515 202.46 173.473 203.903 176.653C205.175 179.456 206.179 181.671 209.798 183.539C213.416 185.407 215.801 184.943 218.82 184.354C222.245 183.687 226.508 182.857 232.194 185.792C237.88 188.727 239.675 192.686 241.118 195.866C242.389 198.669 243.394 200.883 247.012 202.751ZM138.574 229.442C141.01 230.454 143.397 231.573 145.799 232.662C148.184 233.785 150.544 234.96 152.908 236.128C155.245 237.347 157.581 238.569 159.896 239.831C162.19 241.133 164.501 242.401 166.753 243.776C171.279 246.482 175.719 249.341 179.964 252.504C175.118 250.375 170.391 248.072 165.681 245.745C163.312 244.609 160.987 243.393 158.63 242.238L151.607 238.687L144.604 235.097C142.283 233.873 139.933 232.706 137.619 231.46C132.966 229.022 128.32 226.558 123.746 223.897C128.799 225.47 133.722 227.377 138.574 229.442ZM192.833 261.031C190.65 259.752 188.496 258.412 186.47 256.799C189.004 257.328 191.411 258.129 193.788 258.992C196.158 259.872 198.48 260.854 200.761 261.924C203.043 262.992 205.281 264.152 207.472 265.413C209.656 266.69 211.809 268.033 213.834 269.648C211.298 269.122 208.891 268.323 206.514 267.458C204.144 266.578 201.822 265.597 199.542 264.524C197.263 263.452 195.024 262.292 192.833 261.031Z" fill="url(#paint0_linear_55_271)"/>
<defs>
<linearGradient id="paint0_linear_55_271" x1="13.7926" y1="309.702" x2="39.251" y2="23.6864" gradientUnits="userSpaceOnUse">
<stop stop-color="#38A6A1"/>
<stop offset="1" stop-color="#EF4F41"/>
</linearGradient>
</defs>
</svg>
