<?xml version="1.0" encoding="utf-8"?>
<!-- Generator: Adobe Illustrator 23.0.3, SVG Export Plug-In . SVG Version: 6.00 Build 0)  -->
<svg version="1.1" id="Capa_1" xmlns="http://www.w3.org/2000/svg" xmlns:xlink="http://www.w3.org/1999/xlink" x="0px" y="0px"
	 viewBox="0 0 1200 1200" enable-background="new 0 0 1200 1200" xml:space="preserve">
<g>
	<path fill="#423C37" d="M1149.348,831.248c-2.501-7.412-10.231-11.797-17.676-12.664c-1.234-0.262-2.436-0.233-3.28,0.208
		c-0.501,0.186-0.917,0.475-1.176,0.88c-3.612,2.863-6.368,6.732-7.31,10.971c-30.046-6.297-60.092-12.594-90.138-18.891
		c19.203-13.355,38.32-26.835,57.294-40.52c6.265,5.125,17.085,6.326,22.023-1.329c8.781-13.612-15.045-24.249-24.134-14.524
		c-0.236,0.251-0.322,0.516-0.328,0.785c-0.277,0.173-0.521,0.38-0.685,0.658c-1.576,2.672-1.902,5.27-1.373,7.643
		c-0.707,0.069-1.373,0.266-1.923,0.663c-19.378,13.982-38.906,27.75-58.524,41.389c11.279-36.82,22.333-73.709,33.196-110.656
		c0.286,0.074,0.57,0.169,0.857,0.231c11.377,2.468,28.057-8.119,28.45-20.284c0.463-14.334-15.02-21.72-27.36-22.354
		c-7.407-0.381-20.448,4.517-24.281,11.278c-4.783,8.437,6.636,21.929,13.469,26.869c-11.414,38.845-23.053,77.623-34.927,116.329
		c-1.015-0.213-2.029-0.425-3.044-0.638c-13.118-21.858-26.728-43.42-40.809-64.691c5.231-2.266,9.58-6.526,10.114-12.322
		c0.852-9.242-13.479-13.552-20.436-13.87c-8.163-0.372-15.162,4.606-17.094,12.047c-0.664,0.058-1.098,0.212-1.091,0.488
		c0.032,1.256,0.241,2.427,0.575,3.527c-0.003,0.325-0.022,0.643-0.007,0.973c0.023,0.506,0.394,0.956,0.97,1.345
		c2.952,5.522,9.688,8.642,15.973,9.506c1.256,0.172,2.581,0.185,3.926,0.08c13.205,20.048,25.995,40.351,38.346,60.918
		c-32.044-6.716-64.088-13.431-96.132-20.147c-0.495-2.934-1.503-5.835-2.644-8.276c-0.441-0.944-2.016-1.649-3.749-2.065
		c-1.478-1.603-3.225-2.895-5.513-3.765c-0.12-0.046-0.257-0.089-0.382-0.134c-1.448-15.358-3.106-30.697-4.979-46.009
		c-3.158-25.811-4.188-55.544-11.711-80.882c20.517-23.673,41.133-47.26,61.956-70.665c27.576-30.994,55.051-62.165,84.01-91.882
		c13.176-13.521,26.451-27.015,38.315-41.726c8.941-11.085,21.975-24.501,17.383-39.697c-0.102-0.34-0.346-0.741-0.674-1.171
		c2.028-2.23,2.849-5.142,0.54-7.319c-55.643-52.462-111.996-104.166-169.094-155.041c-28.205-25.13-56.587-50.061-85.141-74.794
		c-13.929-12.064-27.901-24.08-41.913-36.048c-11.957-10.212-24.397-24.777-40.195-28.631c-1.664-0.406-3.605,0.148-5.372,1.166
		c-3.205-1.595-7.98-1.542-10.012,1.323c-5.131,7.234-10.338,14.411-15.554,21.581c-0.008-0.024,0.013-0.076,0.001-0.097
		c-16.024-29.103-37.226-53.427-68.991-63.445c-41.762-13.171-88.329,4.465-120.886,33.75
		c-40.674,36.586-70.844,85.293-87.379,137.319c-0.476,1.496-0.862,3.001-1.303,4.501c-2.307-0.021-4.743,0.627-6.6,1.333
		c-2.289,0.87-4.036,2.161-5.515,3.763c-1.733,0.416-3.309,1.119-3.75,2.063c-1.142,2.44-2.151,5.341-2.647,8.274
		c-32.047,6.702-64.094,13.402-96.141,20.104c12.361-20.561,25.161-40.858,38.374-60.9c1.345,0.106,2.67,0.094,3.926-0.078
		c6.286-0.861,13.023-3.978,15.977-9.499c0.576-0.389,0.947-0.839,0.97-1.345c0.015-0.33-0.004-0.648-0.007-0.973
		c0.335-1.1,0.544-2.271,0.577-3.527c0.007-0.276-0.427-0.43-1.091-0.489c-1.928-7.441-8.925-12.423-17.088-12.055
		c-6.958,0.314-21.29,4.618-20.443,13.86c0.531,5.796,4.879,10.058,10.109,12.326c-14.091,21.264-27.71,42.82-40.838,64.672
		c-1.015,0.212-2.029,0.424-3.044,0.637c-11.856-38.711-23.478-77.494-34.874-116.344c6.835-4.937,18.26-18.424,13.481-26.863
		c-3.83-6.763-16.868-11.666-24.276-11.289c-12.34,0.628-27.827,8.007-27.37,22.342c0.388,12.166,17.063,22.76,28.441,20.297
		c0.286-0.062,0.571-0.157,0.857-0.23c10.847,36.951,21.884,73.845,33.146,110.67c-19.611-13.648-39.133-27.424-58.505-41.416
		c-0.549-0.397-1.215-0.595-1.922-0.664c0.53-2.373,0.205-4.971-1.37-7.644c-0.164-0.278-0.408-0.485-0.684-0.658
		c-0.005-0.269-0.092-0.534-0.327-0.785c-9.084-9.728-32.915,0.898-24.14,14.514c4.934,7.657,15.755,6.462,22.022,1.339
		c18.968,13.693,38.079,27.182,57.276,40.545c-30.049,6.284-60.098,12.567-90.147,18.851c-0.94-4.239-3.694-8.109-7.305-10.974
		c-0.259-0.406-0.675-0.695-1.176-0.881c-0.844-0.44-2.045-0.47-3.279-0.209c-7.445,0.864-15.177,5.245-17.681,12.656
		c-2.261,6.692,1.57,13.831,7.959,16.469c7.111,2.935,16.049-0.306,19.913-6.904c0.338-0.577,0.622-1.157,0.864-1.739
		c34.106-6.279,68.178-12.736,102.225-19.329c0.146,0.102,0.292,0.205,0.438,0.307c0.218,0.709,0.439,1.418,0.657,2.128
		c-9.457,16.105-18.643,32.371-27.58,48.784c-1.039-0.238-2.11-0.365-3.181-0.378c-1.401-1.104-4.526-0.138-5.856,0.353
		c-5.669,2.087-10.862,8.133-8.531,14.528c2.069,5.676,8.798,6.895,14.081,5.93c6.139-1.12,12.133-5.359,11.467-12.254
		c-0.202-2.093-1.04-3.775-2.264-5.083c0.804-0.358,1.444-0.797,1.728-1.32c7.489-13.827,15.185-27.531,23.043-41.14
		c7.91,25.628,15.904,51.229,24.015,76.795c-0.116,0.477-0.099,0.991,0.091,1.531c0.546,1.554,1.093,3.109,1.639,4.663
		c-3.944,2.755-7.095,6.427-7.934,11.293c-1.501,8.713,6.397,15.837,14.712,15.613c9.085-0.244,16.922-7.18,16.442-16.516
		c-0.283-5.511-2.596-13.01-7.658-14.468c-0.719-1.104-2.329-1.761-4.715-1.036c-0.611,0.185-1.238,0.416-1.861,0.634
		c-8.593-27.045-17.05-54.132-25.418-81.247c19.44,13.322,38.973,26.506,58.643,39.492c-1.55,2.915-2.169,6.238-1.233,9.899
		c2.157,8.437,12.086,10.422,19.426,8.178c8.3-2.537,14.248-10.893,13.181-19.676c-0.8-6.583-6.276-9.5-11.677-8.675
		c-0.055-0.154-0.103-0.307-0.205-0.464c-1.146-1.775-4.751-0.905-6.257-0.263c-2.571,1.097-5.214,2.595-7.549,4.445
		c-21.973-14.521-43.806-29.249-65.492-44.19c0.045-0.075,0.09-0.15,0.135-0.226c35.111-6.838,70.185-13.871,105.23-21.042
		c0.932,1.235,2.185,2.309,3.847,3.14c1.765,0.883,3.765,1.228,5.818,1.211c-7.509,46.7-3.789,94.499-10.356,141.702
		C389.65,568.142,198.253,536.01,85.144,581.221c-77.512,30.983-7.714,126.712,27.591,161.225
		c9.681,9.464,22.923,26.603,35.398,35.714c-3.791,4-7.552,8.029-11.354,12.019c-11.129,11.678-24.495,22.945-33.516,36.387
		c-14.519,21.634-3.246,37.948,15.501,50.988c54.433,37.864,104.929,80.831,153.441,125.958
		c23.878,22.211,47.315,44.892,70.647,67.673c23,22.457,45.151,46.495,69.402,67.594c8.101,7.048,17.036,11.453,26.853,4.791
		c12.369-8.393,21.213-26.689,30.143-38.491c21.791-28.796,44.465-56.924,67.976-84.333c1.638-1.908,3.311-3.785,4.957-5.686
		c0.658,0.333,1.313,0.671,1.972,1.002c26.701,13.412,55.031,24.267,81.151,38.116c28.194,14.95,55.955,30.207,86.988,38.58
		c36.006,9.716,76.074,9.768,108.933-7.87c36.803-19.755,59.78-59.192,69.353-99.849c6.841-29.053,8.39-59.507,7.819-89.977
		c-0.478-25.542-2.447-51.096-4.039-75.848c-0.401-6.256-0.867-12.507-1.341-18.758c1.406-0.162,2.775-0.471,4.014-1.09
		c1.662-0.83,2.916-1.903,3.848-3.138c35.042,7.187,70.112,14.235,105.221,21.089c0.045,0.076,0.09,0.151,0.135,0.226
		c-21.693,14.932-43.533,29.649-65.512,44.16c-2.334-1.851-4.977-3.351-7.547-4.448c-1.505-0.643-5.11-1.514-6.257,0.26
		c-0.102,0.157-0.15,0.31-0.205,0.464c-5.4-0.827-10.878,2.087-11.681,8.669c-1.071,8.783,4.873,17.141,13.172,19.682
		c7.339,2.248,17.269,0.267,19.43-8.169c0.938-3.661,0.321-6.984-1.228-9.9c19.675-12.977,39.215-26.152,58.661-39.466
		c-8.38,27.111-16.849,54.194-25.454,81.235c-0.623-0.218-1.251-0.449-1.861-0.634c-2.386-0.726-3.996-0.071-4.716,1.034
		c-5.063,1.456-7.379,8.954-7.665,14.464c-0.483,9.335,7.35,16.275,16.435,16.523c8.314,0.228,16.216-6.893,14.719-15.607
		c-0.836-4.867-3.986-8.54-7.929-11.297c0.547-1.554,1.094-3.108,1.641-4.662c0.19-0.541,0.208-1.054,0.092-1.531
		c8.123-25.562,16.129-51.16,24.05-76.784c7.852,13.612,15.542,27.32,23.025,41.15c0.284,0.524,0.923,0.963,1.728,1.321
		c-1.224,1.307-2.064,2.989-2.267,5.082c-0.669,6.895,5.323,11.137,11.462,12.26c5.283,0.967,12.013-0.249,14.084-5.924
		c2.334-6.393-2.857-12.442-8.525-14.531c-1.331-0.491-4.454-1.458-5.856-0.355c-1.07,0.013-2.141,0.14-3.181,0.377
		c-8.93-16.417-18.108-32.688-27.559-48.797c0.219-0.709,0.44-1.418,0.658-2.128c0.146-0.102,0.292-0.205,0.438-0.306
		c34.043,6.608,68.112,13.08,102.216,19.375c0.242,0.582,0.526,1.162,0.863,1.739c3.861,6.6,12.797,9.844,19.91,6.913
		C1147.771,845.079,1151.606,837.941,1149.348,831.248z M767.565,769.735c0.528,2.051,1.146,4.086,1.81,6.108
		c-0.972-1.876-1.78-3.885-2.335-6.128c0.142-0.049,0.273-0.113,0.367-0.226c0.029-0.035,0.058-0.069,0.087-0.104
		C767.523,769.506,767.534,769.614,767.565,769.735z M673.056,241.352c2.828,6.45,9.361,12.737,14.068,18.027
		c8.89,9.991,18.801,18.844,29.448,26.911c1.425,1.08-5.873,4.333-7.77,2.897c-13.166-9.977-25.146-21.208-35.524-34.087
		c-8.578-10.643-13.072-16.487-5.75-29.165c15.481-26.807,35.235-51.026,57.51-72.449c1.536-1.479,9.388-2.261,7.526-0.471
		c-20.906,20.107-39.318,42.547-54.373,67.373C673.935,227.407,669.446,233.118,673.056,241.352z M519.175,349.469
		c9.727-10.359,19.359-20.806,28.896-31.34c19.069-21.061,37.757-42.468,56.051-64.205c18.293-21.736,36.193-43.803,53.688-66.186
		c8.749-11.193,17.397-22.466,25.942-33.816c2.025-2.689,16.519-19.604,22.14-28.151c2.71,1.76,4.943,4.347,6.054,7.729
		c0.312,0.948,0.655,1.886,1.023,2.804c-27.123,36.982-55.22,73.222-84.454,108.53c32.666,27.955,65.59,55.61,98.421,83.379
		c35.974-40.893,71.28-82.38,106.25-124.129c-29.245-25.449-58.874-50.416-88.927-74.728c-3.581-2.898-10.157-10.104-16.124-13.609
		c1.757-2.437,3.524-4.866,5.267-7.314c15.007,4.791,28.18,20.46,39.761,30.365c14.004,11.978,27.967,24.003,41.888,36.076
		c8.252,7.157,16.458,14.368,24.681,21.559c-0.274,0.327-0.549,0.653-0.823,0.98c1.456,1.295,2.832,2.646,4.177,4.027
		c0.336-0.4,0.672-0.798,1.008-1.198c18.75,16.419,37.451,32.892,56.048,49.485c15.635,13.95,31.18,27.999,46.695,42.081
		c1.117,0.593,2.218,1.342,3.285,2.288c2.702,2.394,5.19,4.976,7.623,7.606c0.758,0.69,1.519,1.376,2.277,2.065
		c-0.056,0.076-0.114,0.15-0.17,0.226c1.646,1.835,3.286,3.678,4.916,5.532c0.212-0.284,0.43-0.563,0.642-0.848
		c33.477,30.539,66.729,61.325,99.701,92.411c0.087,0.082,0.192,0.128,0.283,0.2c-2.166,14.661-19.209,30.862-27.49,40.252
		c-11.979,13.584-24.862,26.323-37.421,39.36c-28.512,29.6-55.595,60.68-82.863,91.422c-29.727,33.517-59.086,67.357-88.185,101.417
		c-4.223,5.931-8.401,11.89-13.456,17.168c-1.079,1.126-2.225,1.983-3.402,2.649c-16.354,19.259-32.623,38.59-48.787,58.01
		c-4.297-10.547-12.968-12.762-22.556-13.421c2.56-0.785,5.075-1.827,7.548-3.128c-0.158-0.166-0.156-0.39,0.112-0.697
		c5.674-6.485,11.347-12.971,17.022-19.456c5.04-5.76,15.384-14.082,16.402-21.727c1.062-7.974-9.594-14.785-14.751-19.984
		c-5.476-5.519-10.63-11.308-15.64-17.251c-1.275-1.512,6.486-4.369,7.79-2.822c7.264,8.616,14.913,16.687,23.078,24.45
		c3.838,3.649,9.086,7.527,8.629,13.495c-0.049,0.638-0.22,1.304-0.451,1.982c5.812-6.772,11.621-13.548,17.428-20.324
		c-31.37-27.049-62.094-54.833-93.003-82.406c-21.103,23.697-41.699,47.831-61.392,72.741c-1.299-2.207-2.623-4.373-3.972-6.499
		c19.325-24.256,39.467-47.81,60.107-70.935c-12.56-11.179-25.169-22.304-37.892-33.3c-26.933-23.277-54.355-45.977-81.752-68.706
		c-11.303,11.471-22.682,22.87-34.181,34.155c-0.212,0.208-0.544,0.391-0.919,0.563c-0.713-1.679-1.419-3.36-2.113-5.049
		c11.11-10.954,22.149-21.976,33.076-33.103c-20.909-17.353-41.757-34.778-62.376-52.475c-0.852-2.742-1.706-5.481-2.559-8.212
		c1.591-0.489,3.194-0.68,3.862-0.104c21.796,18.827,43.912,37.274,66.071,55.671c44.737-45.771,88.027-92.912,130.377-140.899
		c-32.776-27.73-65.645-55.341-98.267-83.242c-36.48,43.761-74.532,86.213-114.12,127.246c-1.566-4.652-3.627-8.832-6.66-11.469
		C509.104,362.253,514.184,354.785,519.175,349.469z M798.796,191.691c-2.555-2.803-6.047-5.052-9.089-7.333
		c-8.577-6.433-17.736-11.927-27.274-16.806c-3.142-1.606,4.483-4.861,6.646-3.754c9.918,5.072,19.426,10.752,28.341,17.454
		c6.114,4.595,16.09,10.082,15.465,18.704c-0.625,8.631-11.832,19.941-16.691,26.588c-8.165,11.17-17.067,21.712-26.475,31.85
		c-1.667,1.797-9.819,2.426-7.633,0.071c13.507-14.556,26.02-30.051,36.762-46.777C804.115,203.486,806.535,200.183,798.796,191.691
		z M548.303,482.129c-2.079-5.014-6.258-8.478-10.104-12.137c-0.383-0.364-0.766-0.728-1.148-1.093
		c-1.596-4.821-3.151-9.652-4.69-14.484c0.346,0.086,0.648,0.215,0.863,0.42c4.703,4.475,9.407,8.947,14.107,13.424
		c3.677,3.502,7.264,6.888,9.241,11.655C557.482,482.109,549.355,484.666,548.303,482.129z M625.457,567.852
		c-8.161-6.684-16.322-13.367-24.484-20.05c-2.04-1.671-4.08-3.342-6.12-5.013c-1.898-3.225-3.801-3.341-5.708-0.35
		c-3.759,1.609-8.346,8.649-11.225,11.634c-0.983,1.018-2.744,1.444-4.35,1.377c-0.772-1.365-1.553-2.725-2.304-4.102
		c5.489-5.849,14.184-19.859,23.693-17.562c5.515,1.332,11.056,8.154,15.449,11.751c7.141,5.848,14.282,11.696,21.423,17.544
		C635.513,566.098,628.29,570.173,625.457,567.852z M722.915,637.483c-18.338,17.038-35.588,35.104-51.75,54.218
		c-1.001-1.457-1.982-2.934-2.938-4.434c14.879-17.169,30.578-33.563,47.235-49.038
		C716.899,636.893,724.494,636.016,722.915,637.483z M677.903,335.735c-1.946-4.106-7.523-7.836-10.792-11.127
		c-5.052-5.087-10.103-10.175-15.154-15.262c-2.772-2.791,5.068-6.108,7.589-3.569c12.196,12.282,42.759,31.831,23.68,49.513
		c-22.364,20.726-44.462,40.444-64.153,63.882c-2.307,2.746-10.195,1.713-6.869-2.247c14.454-17.206,29.899-33.491,46.529-48.612
		C667.463,360.375,685.207,351.148,677.903,335.735z M618.979,291.891c-24.447,22.411-49.229,45.108-67.895,72.757
		c-4.932,7.306-14.347,19.672-11.688,28.671c2.17,7.345,8.404,12.818,13.783,17.961c12.199,11.663,25.145,22.494,38.534,32.76
		c2.285,1.752-5.348,5.032-7.676,3.247c-15.595-11.958-31.884-24.58-45.092-39.222c-11.171-12.384-9.005-21.947-0.838-35.395
		c19.308-31.794,47.051-57.249,74.234-82.168C614.367,288.644,622.503,288.661,618.979,291.891z M105.328,624.859l42.717-9.128
		l9.13-42.326l9.177,42.473l42.57,8.691l-42.18,9.274l-9.57,42.472l-9.176-42.375L105.328,624.859z M453.739,1103.85
		c-6.096,8.179-11.514,18.117-18.956,25.135c-13.046,12.303-28.421-8.145-37.326-16.816c-32.592-31.732-64.897-63.762-97.84-95.132
		c-32.014-30.485-64.641-60.369-98.607-88.677c-17.736-14.782-35.84-29.124-54.394-42.867c-8.942-6.624-17.996-13.091-27.138-19.435
		c-6.877-4.772-13.438-11.198-12.364-20.893c0.595-5.366,7.869-12.339,11.412-16.239c29.007-31.942,58.498-63.401,87.929-94.915
		c0.217-0.232,0.433-0.465,0.65-0.697c36.386-38.965,72.671-78.023,107.809-118.21c35.176-40.23,69.805-80.939,103.874-122.112
		c12.166-14.702,26.055-29.335,36.985-45.399c0.021,1.448,0.1,2.901,0.322,4.367c1.065,7.045,5.013,13.214,6.951,19.983
		c1.422,4.968,2.102,9.9,0.099,14.88c-1.778,4.419-5.223,6.886-6.099,11.797c-0.97,5.441,0.964,10.797,4.816,14.607
		c5.121,5.064,9.115,3.488,15.067,5.422c6.709,2.18,8.204,5.67,13.477,8.629c5.846,3.282,11.554,3.66,16.402,8.985
		c4.594,5.046,7.472,10.222,13.854,13.298c2.201,1.061,8.851-2.342,7.781-2.857c-9.245-4.455-12.574-15.162-21.777-19.587
		c-2.815-1.354-6.063-1.482-8.759-3.147c-3.325-2.054-3.155-4.852-5.971-7.123c-2.69-2.169-4.34-1.283-7.466-1.948
		c-7.007-1.491-15.342-1.655-18.26-9.525c-2.263-6.102,0.221-10.791,2.727-16.119c2.364-5.027,4.289-7.933,3.68-13.7
		c-0.734-6.957-4.478-13.187-6.603-19.757c-3.5-10.819-1.031-20.821,2.393-31.421c0.127-0.392-0.207-0.639-0.785-0.771
		c5.542-19.916,11.296-52.232,31.768-46.371c22.078,68.755,40.005,143.773,80.783,204.132
		c20.534,30.395,48.342,55.131,67.563,86.478c13.955,22.758,25.696,48.052,50.14,60.755c4.001,6.284,3.579,15.635,6.638,22.449
		c4.344,9.673,16.774,10.041,19.293,20.701c0.595,2.516,8.89,0.413,8.269-2.214c-1.202-5.089-3.397-7.628-7.651-10.625
		c-6.931-4.883-11.024-6.445-13.223-15.014c-0.301-1.173-0.569-2.365-0.829-3.563c14.971,5.382,36.271-2,44.526,12.617
		c1.143,2.025,1.88,4.169,2.416,6.374c-0.209,0.251-0.42,0.501-0.629,0.752c-0.59,0.711,0.16,2.172,1.488,3.748
		c0.929,6.306,1.169,12.858,4.661,18.591c3.396,5.574,7.684,10.074,9.313,16.631c1.713,6.894,0.723,15.901-1.161,22.67
		c-1.041,3.739-1.872,8.077-5.094,8.218c-1.41,0.062-3.679-1.945-5.112-2.32c-2.789-0.731-4.641-0.942-7.388-0.333
		c-7.874,1.741-10.476,9.65-15.275,15.185c-4.463,5.147-11.468,9.968-17.908,12.204c-5.142,1.786-13.601,2.589-18.698,0.065
		c-1.196-0.592-1.734-2.382-2.915-3.069c-5.428-3.161-8.915-5.255-14.232-3.551c-3.527-1.726-6.366-4.348-6.684-8.784
		c-0.183-2.546-8.489-0.855-8.269,2.214c0.435,6.07,5.194,9.306,10.4,11.333c0.156,0.276,0.379,0.527,0.644,0.752
		c-66.083,60.406-127.713,125.581-184.009,195.213C481.85,1066.895,467.612,1085.236,453.739,1103.85z M711.752,1016.232
		l-9.57,42.472l-9.177-42.375l-42.667-9.081l42.716-9.128l9.131-42.326l9.176,42.473l42.57,8.691L711.752,1016.232z
		 M694.119,826.401c-0.531-0.222,5.64-3.633,7.817-2.722c5.732,2.398,14.251,6.651,19.549,1.786
		c3.811-3.499,5.396-9.135,8.588-13.189c1.493-1.897,8.438-1.936,8.132-1.547c-6.022,7.65-7.966,15.982-18.2,18.972
		C711.025,832.325,702.499,829.908,694.119,826.401z M480.597,435.945c-1.5,0.569-4.376,1.244-5.56-0.406
		c-1.115-1.555,0.616-3.342,2.054-3.888c5.19-1.967,8.568-6.418,9.55-11.84c0.608-3.353,9.016-4.549,8.334-0.789
		C493.568,426.794,487.941,433.161,480.597,435.945z M496.671,456.034c-4.209,2.556-7.324,6.234-9.327,10.722
		c-0.665,1.489-3.461,2.081-4.831,2.315c-0.519,0.088-3.972,0.517-3.337-0.905c2.34-5.241,6.236-9.52,11.132-12.495
		c1.626-0.987,3.923-1.769,5.847-1.565C497.615,454.26,498.082,455.177,496.671,456.034z M641.031,785.559
		c13.051,10.216,24.341,22.173,33.668,35.883c2.281,3.353-5.657,6.385-7.601,3.527c-9.029-13.272-19.853-24.956-32.5-34.855
		C630.998,787.296,638.372,783.478,641.031,785.559z M610.425,764.051c-3.887-4.757-6.091-13.252-5.799-19.148
		c0.171-3.453,1.615-6.169,2.375-9.494c1.051-4.601-0.23-9.075,0.341-13.508c0.504-3.916,0.99-5.102,3.979-7.295
		c1.719-1.261,9.95-1.891,6.448,0.679c-3.338,2.449-0.849,12.584-2.03,17.116c-1.937,7.435-3.62,13.283-1.056,20.799
		c3.766,11.043,14.769,13.932,20.134,24.188c0.894,1.711-7.047,4.551-8.27,2.214C622.326,771.532,615.511,770.276,610.425,764.051z
		 M603.799,718.625c2.462,2.369-5.369,5.557-7.644,3.368c-9.041-8.701-7.553-21.308-5.534-32.574
		c0.557-3.109,8.931-4.399,8.304-0.902C597.051,698.978,595.385,710.528,603.799,718.625z M227.09,516.459l-7.401-34.205
		l-34.439-7.338l34.481-7.361l7.376-34.163l7.401,34.284l34.36,7.022l-34.048,7.479L227.09,516.459z M855.814,438.85
		c29.148,25.162,58.297,50.327,87.445,75.489c20.702-24.468,41.374-48.961,62.006-73.489c2.475-2.943,5.198-5.855,7.938-8.765
		c3.183-4.152,6.426-8.259,9.736-12.315c1.663-2.037,4.443-5.039,6.733-8.289c2.086-4.064,3.22-8.232,2.876-12.567
		c-2.253-4.444-8.118-8.813-11.154-11.754c-11.658-11.294-23.435-23.538-34.682-35.637c-5.74-6.174-11.93-12.207-17.218-18.774
		c-3.979-4.942-5.997-10.534-11.37-14.354c-17.758,18.664-32.588,41.167-49.385,60.856
		C891.496,399.464,873.777,419.271,855.814,438.85z M947.87,368.924c2.085-1.885,10.224-1.757,6.659,1.466
		c-10.98,9.93-19.804,21.895-29.043,33.401c-6.932,8.634-24.862,24.137-24.522,35.078c0.321,10.362,14.776,22.535,21.699,29.841
		c8.778,9.263,18.228,17.776,28.143,25.798c2.343,1.895-5.348,5.154-7.668,3.277c-12.396-10.029-24.03-20.887-34.591-32.847
		c-5.177-5.863-19.08-17.787-17.755-26.664c0.869-5.825,9.333-12.763,12.815-17.101c5.309-6.612,10.618-13.224,15.928-19.837
		C928.538,390.124,937.173,378.597,947.87,368.924z M850.503,434.265c35.731-39.004,70.422-78.887,102.343-121.129
		c-37.661-35.865-76.086-71.042-115.283-105.268c-34.978,41.715-70.298,83.165-106.299,124.005
		c17.947,15.193,35.867,30.418,53.669,45.787C806.79,396.528,828.646,415.396,850.503,434.265z M867.082,371.457
		c9.036-9.685,18.072-19.369,27.108-29.053c6.994-7.497,25.993-21.866,23.023-33.931c-2.218-9.011-15.097-20.166-21.189-26.616
		c-7.292-7.721-15.022-14.931-23.064-21.861c-2.304-1.985,5.43-5.196,7.671-3.264c11.134,9.591,21.646,19.807,31.277,30.92
		c5.355,6.179,14.618,14.322,13.961,23.382c-0.75,10.338-12.834,19.733-19.218,26.575c-10.973,11.759-21.945,23.518-32.917,35.278
		C871.803,374.956,863.769,375.008,867.082,371.457z M770.042,342.769c-3.075-10.733,12.36-26.006,17.82-34.013
		c10.053-14.74,20.258-29.375,30.573-43.934c2.353-3.32,10.071-1.612,6.997,2.726c-8.252,11.646-16.437,23.339-24.524,35.101
		c-7.336,10.67-26.329,30.557-18.239,43.787c6.311,10.322,18.633,20.522,27.404,28.588c9.342,8.593,19.332,16.11,30.329,22.455
		c4.138,2.387-2.966,6.912-6.319,4.977c-13.908-8.025-26.117-18.043-37.494-29.343C788.889,365.465,773.091,353.412,770.042,342.769
		z M720.241,584.846c30.892,27.524,61.568,55.292,92.857,82.361c16.945-19.783,33.852-39.598,50.751-59.421
		c-0.351-1.035-0.571-2.124-0.651-3.249c-2.834,2.714-5.694,5.403-8.61,8.038c-3.062,2.768-9.615,0.032-5.469-3.717
		c15.326-13.851,29.491-28.894,42.157-45.224c6.051-7.802,21.171-22.492,16.335-33.116c-3.325-7.305-13.911-15.31-19.301-21.244
		c-2.769-3.046,5.083-6.367,7.575-3.624c5.999,6.602,20.318,17.421,22.308,26.274c1.336,5.947-4.091,13.37-8.678,19.178
		c0.93-0.182,1.843-0.258,2.733-0.233c8.633-10.174,17.287-20.329,25.908-30.512c-29.229-25.233-58.458-50.465-87.687-75.698
		C807.257,491.544,762.789,537.368,720.241,584.846z M855.374,484.829c-21.404,22.391-41.23,46.195-59.066,71.532
		c-5.094,7.237-10.948,14.127-12.835,22.823c-1.838,8.47,4.784,14.399,10.356,20.617c10.386,11.59,22.696,20.892,36.179,28.562
		c4.158,2.365-2.932,6.92-6.314,4.996c-15.384-8.752-29.097-19.786-40.494-33.364c-7.088-8.444-13.768-14.64-8.289-24.985
		c18.004-33.994,47.071-65.333,73.457-92.935C851.129,479.189,859,481.036,855.374,484.829z M680.045,549.494
		c11.725,10.133,23.348,20.383,34.931,30.678c42.578-47.41,87.034-93.201,130.189-140.09
		c-22.185-19.151-44.369-38.303-66.554-57.455c-17.433-15.049-34.977-29.961-52.55-44.839
		c-42.391,47.933-85.73,95.012-130.533,140.702C623.845,501.988,652.206,525.432,680.045,549.494z M731.016,525.373
		c19.405-18.934,38.771-37.91,58.089-56.933c4.526-4.456,10.101-8.77,13.981-13.783c7.146-9.233,4.664-10.542-2.917-19.102
		c-8.226-9.289-16.916-18.161-25.754-26.864c-1.204-1.185,6.306-4.259,7.798-2.79c10.369,10.21,25.796,21.992,32.775,34.851
		c4.078,7.514-0.545,9.402-6.426,15.205c-23.292,22.982-46.654,45.895-70.074,68.747
		C737.056,526.101,729.363,526.987,731.016,525.373z M717.257,382.123c1.819-1.809,9.908-2.174,6.573,1.142
		c-25.347,25.203-48.287,52.675-68.268,82.325c-7.513,11.15-13.114,20.688-3.302,32.032c4.648,5.374,9.997,10.305,14.997,15.354
		c9.214,9.302,18.973,17.871,29.189,26.054c2.078,1.664-5.537,4.887-7.701,3.154c-12.831-10.278-24.604-21.323-36.067-33.088
		c-11.414-11.716-19.605-18.933-10.269-35.08C661.978,440.171,689.66,409.563,717.257,382.123z M182.02,802.62
		c-9.741,15.526-19.483,31.051-29.225,46.576c-2.924,4.661-10.327,0.358-7.391-4.322c9.742-15.526,19.483-31.051,29.225-46.576
		C177.553,793.637,184.956,797.94,182.02,802.62z M181.45,838.691c-5.723,8.329-11.447,16.658-17.17,24.987
		c-3.104,4.517-10.519,0.229-7.391-4.322c5.723-8.329,11.447-16.659,17.17-24.987C177.163,829.852,184.578,834.139,181.45,838.691z
		 M357.204,738.667c-41.849,45.769-86.109,90.438-120.522,142.284c-3.036,4.574-10.446,0.281-7.391-4.322
		c33.797-50.917,76.928-94.874,118.027-139.822c45.284-49.525,90.567-99.05,135.851-148.575c3.727-4.076,9.764,1.995,6.052,6.055
		L357.204,738.667z M582.637,747.335c-44.958,38.37-83.995,82.71-122.682,127.226c-39.857,45.863-79.702,91.737-119.553,137.605
		c-3.621,4.168-9.65-1.913-6.052-6.055c39.851-45.868,79.696-91.742,119.553-137.605c38.687-44.517,77.724-88.856,122.682-127.226
		C580.755,737.721,586.834,743.753,582.637,747.335z"/>
</g>
</svg>
