<?xml version="1.0" encoding="utf-8"?>
<!-- Generator: Adobe Illustrator 23.0.3, SVG Export Plug-In . SVG Version: 6.00 Build 0)  -->
<svg version="1.1" id="Layer_1" xmlns="http://www.w3.org/2000/svg" xmlns:xlink="http://www.w3.org/1999/xlink" x="0px" y="0px"
	 viewBox="0 0 1200 1200" enable-background="new 0 0 1200 1200" xml:space="preserve">
<path d="M905.729,609.386c-25.512,34.086-50.152,68.815-74.016,104.061c-12.636,18.63-25.001,37.439-37.252,56.32
	c-12.132,18.956-24.173,37.97-35.976,57.128c-23.654,38.286-46.718,76.924-69.343,115.802l-33.679,58.453
	c-5.567,9.724-11.183,19.395-17.07,28.805c-2.947,4.693-5.962,9.338-9.125,13.73c-1.579,2.188-3.207,4.322-4.859,6.21
	c-0.729,0.835-1.467,1.589-2.143,2.203c-8.415-4.709-16.834-9.435-25.219-14.208l24.125-40.227l-33.759,34.646
	c-6.874-3.96-13.759-7.909-20.543-11.956c-11.642-7.18-23.336-14.6-35.026-22.036c4.481-5.15,9.211-7.582,14.605-9.622
	c-7.188-3.988-14.331-8.048-21.455-12.14c-3.673,2.639-7.331,6.035-10.837,10.528c-1.239-0.785-2.48-1.577-3.719-2.36
	l-51.996-33.227c3.573-3.728,7.324-5.887,11.455-7.607l-12.652-7.699l-7.497-4.705c-3.06,2.285-6.103,5.106-9.051,8.671
	l-42.948-27.445l-12.552-8.079c3.625-3.381,7.453-5.323,11.688-6.96c-6.603-4.347-13.176-8.742-19.728-13.171
	c-3.295,2.228-6.591,5.029-9.789,8.656l-82.072-52.826l-56.081-36.416l-14.004-9.128c-4.748-3.051-9.115-5.99-13.634-9.252
	c-2.828-2.028-5.638-4.121-8.452-6.196l23.908-49.919l-32.856,43.262c-2.209-1.665-4.415-3.331-6.612-5.007
	c0.279-0.974,0.606-2.001,0.982-3.049c0.789-2.223,1.709-4.495,2.663-6.755c1.921-4.526,4.025-9.042,6.218-13.504
	c2.199-4.457,4.491-8.888,6.907-13.156c2.357-4.138,5.175-8.568,7.753-12.852c10.512-17.28,21.137-34.491,31.847-51.648
	c21.415-34.319,43.168-68.427,65.308-102.284c42.594-65.115,86.249-129.546,131.281-193.015l-9.243-2.646
	c-44.856,62.423-88.651,125.624-130.868,189.875c-22.266,33.863-44.146,67.98-65.688,102.309
	c-10.773,17.163-21.462,34.38-32.037,51.666c-2.651,4.383-5.291,8.483-7.963,13.132c-2.581,4.535-4.952,9.094-7.243,13.709
	c-2.283,4.617-4.47,9.274-6.516,14.06c-1.02,2.4-2.009,4.818-2.921,7.363c-0.458,1.27-0.891,2.58-1.291,3.992
	c-0.199,0.71-0.387,1.45-0.551,2.296c-0.091,0.535-0.193,1.103-0.243,1.824c-9.317,8.307-19.329,16.024-29.302,24.027
	c-5.424,4.363-10.844,8.804-16.089,13.542l-15.291,14.142l-4.019,3.717l4.109,3.768c2.238,2.052,4.517,4.229,6.625,6.391
	c1.052,1.082,2.082,2.181,2.972,3.233c0.74,0.857,1.869,2.435,2.972,3.706c4.43,5.275,9.693,9.806,15.467,13.499
	c5.725,3.758,12.274,6.413,18.197,8.569c6.004,2.183,10.671,4.289,14.266,8.221c0.935,0.977,1.736,1.981,2.647,3.163l2.864,3.82
	c1.954,2.575,3.991,5.23,6.386,7.791c2.387,2.554,5.122,5.002,8.188,7.021c3.038,2.007,6.469,3.59,9.694,4.725
	c12.54,4.466,25.038,6.627,34.934,12.326c9.874,5.339,16.185,15.475,22.505,26.42c3.193,5.461,6.468,11.169,10.609,16.629
	c4.104,5.433,9.333,10.654,15.739,14.217c6.351,3.585,13.098,5.435,19.418,6.909c6.359,1.475,12.418,2.643,17.949,4.473
	c10.888,3.421,19.665,11.273,27.528,20.603c7.917,9.291,15.098,20.02,24.1,29.749c8.908,9.618,18.648,18.384,29.334,26.032
	c10.694,7.587,22.283,14.298,35.329,18.266c1.608,0.539,3.266,0.96,4.947,1.329c1.681,0.412,3.341,0.776,4.947,1.047
	c3.24,0.578,6.439,1.047,9.582,1.505c6.284,0.914,12.367,1.799,18.062,3.339c5.701,1.489,10.86,3.821,16.092,6.904
	c5.179,3.058,10.393,6.639,15.453,10.232c10.132,7.255,19.814,15.178,29.106,23.57c2.186,2.014,4.975,4.518,7.759,6.484
	c2.823,2.034,5.834,3.816,8.916,5.333c6.185,3.045,12.519,5.034,18.569,6.95c3.063,0.974,5.997,1.867,8.884,2.903
	c2.957,1.047,6.002,2.15,9.135,3.16c3.138,1.011,6.365,1.947,9.819,2.602c3.457,0.612,7.172,1.118,11.652,0.161l3.523-0.753
	l0.376-3.724c0.717-7.109,1.65-14.357,2.912-21.355c0.647-3.56,1.356-6.819,2.337-10.304l2.932-10.596
	c1.946-7.109,3.84-14.259,5.459-21.546c0.819-3.64,1.553-7.322,2.141-11.095c0.349-2.346,0.663-4.692,0.799-7.19
	c0.109-0.057,0.235-0.123,0.337-0.174c1.077-0.636,1.835-1.253,2.548-1.859c1.377-1.206,2.472-2.38,3.501-3.555
	c2.041-2.347,3.81-4.697,5.514-7.067c3.391-4.737,6.481-9.533,9.498-14.362c6.009-9.658,11.654-19.441,17.229-29.233l33.492-58.463
	c22.493-38.871,45.412-77.483,68.911-115.729c46.466-75.515,95.1-149.718,147.855-220.943l-6.797-1.505L905.729,609.386z
	 M616.651,1068.638c-0.592,3.463-1.34,6.965-2.183,10.466c-1.664,7.006-3.626,14.009-5.656,21.013l-3.09,10.559
	c-1.063,3.558-1.98,7.455-2.689,11.1c-1.164,5.973-2.028,11.887-2.788,17.857c-1.229-0.069-2.572-0.248-3.919-0.533
	c-2.777-0.567-5.658-1.406-8.556-2.35c-2.905-0.949-5.826-2.018-8.848-3.103c-3.085-1.118-6.22-2.092-9.201-3.056
	c-6.032-1.935-11.84-3.832-17.043-6.437c-0.846-0.422-1.652-0.895-2.467-1.355l2.959,0.841l5.756-42.021l-16.051,36.186
	c-1.412-1.164-2.788-2.406-4.38-3.882c-9.505-8.673-19.461-16.909-29.936-24.49c-5.271-3.778-10.508-7.431-16.243-10.862
	c-5.668-3.411-12.168-6.397-18.763-8.135c-6.564-1.804-13.077-2.755-19.342-3.706c-3.135-0.473-6.215-0.942-9.222-1.495
	c-0.904-0.157-1.734-0.369-2.587-0.563c5.014-9.412,8.2-19.487,9.485-29.544c-4.69,10.391-11.412,19.47-19.349,26.69
	c-9.875-3.603-19.275-9.163-28.058-15.479c-4.134-2.988-8.106-6.22-11.971-9.581c7.155-9.544,12.54-20.075,15.922-30.961
	c-6.329,9.635-14.214,17.892-23.003,24.479c-2.866-2.766-5.677-5.588-8.36-8.516c-8.242-8.955-15.193-19.455-23.673-29.551
	c-3.662-4.278-7.666-8.447-12.16-12.23c9.804-11.997,17.75-25.185,23.621-38.994c-9.315,12.615-20.368,23.595-32.531,32.623
	c-3.759-2.219-7.758-4.098-11.855-5.416c-11.547-3.694-22.872-4.667-31.945-8.601l19.655-42.894l-28.911,37.065
	c-6.485-5.669-11.447-13.886-16.435-22.417c-3.244-5.473-6.602-11.167-10.873-16.553c-2.209-2.826-4.796-5.537-7.637-7.986
	c9.319-11.629,16.787-24.418,22.176-37.784c-8.776,12.284-19.304,22.968-30.947,31.707c-12.225-6.652-25.087-8.659-36.233-12.683
	c-0.674-0.227-1.281-0.518-1.922-0.776l19.637-24.268l-27.958,19.378c-1.177-0.972-2.319-2.018-3.416-3.196
	c-1.956-2.064-3.813-4.438-5.705-6.908l-2.867-3.783c-0.613-0.791-1.293-1.625-2.002-2.453l30.983-25.053l-39.382,17.813
	c-0.643-0.397-1.289-0.788-1.946-1.136c-3.225-1.744-6.462-2.942-9.445-4.039c-5.995-2.16-11.303-4.302-16.242-7.49
	c-4.942-3.109-9.402-6.966-13.198-11.359c-0.996-1.112-1.708-2.129-3.036-3.679c-1.177-1.356-2.339-2.556-3.513-3.736
	c-1.035-1.034-2.069-2.026-3.111-3.011l11.053-10.475c4.957-4.612,10.18-9.025,15.473-13.412
	c9.364-7.747,19.004-15.419,28.217-23.783c6.968,5.341,13.971,10.611,21.089,15.797l-32.791,31.926l42.557-24.963
	c2.423,1.652,4.86,3.268,7.234,4.8l13.988,9.168l22.135,14.453c-1.881,8.425-3.341,16.572-5.381,24.644
	c-2.147,8.461-4.717,16.861-9.03,24.629c5.949-6.626,10.519-14.541,14.598-22.539c3.433-6.735,6.464-13.7,9.565-20.367
	l24.128,15.754l69.553,45.016l-7.811,24.768l16.585-19.089l33.996,22.003c7.103,4.569,14.234,9.093,21.348,13.644
	c-9.214,14.609-16.39,30.21-21.341,46.25c8.584-14.898,19.077-28.39,30.96-40.101c5.289,3.378,10.57,6.768,15.863,10.139
	l-20.543,39.064l29.388-33.411c16.981,10.798,33.981,21.565,50.982,32.33c-5.114,13.974-8.981,28.232-11.548,42.558
	c6.098-12.857,13.251-25.027,21.254-36.413c8.601,5.42,17.158,10.846,25.74,16.261l-7.771,42.451l17.218-36.514
	c5.988,3.754,11.997,7.503,18.078,11.232c10.995,6.523,22.038,12.848,33.113,19.099l-13.559,45.61l22.86-40.375
	c4.679,2.62,9.366,5.233,14.057,7.842C617.31,1064.364,617.019,1066.522,616.651,1068.638z M481.102,325.47l52.061-77.34
	c1.436,5.376,2.872,19.328,4.307,24.705c-8.26,13.383-25.714,40.164-41.57,63.615l22.962,17.767l1.852,1.433l0.092,2.348
	l2.591,66.365l26.64,29.512c1.938-3.552,3.909-7.085,5.934-10.584c6.745-11.645,13.873-23.062,21.448-34.177
	c3.853-5.512,7.673-11.047,11.628-16.487c4.043-5.378,7.989-10.822,12.221-16.06c8.337-10.564,17.047-20.849,26.563-30.485
	c-6.559,11.846-13.677,23.228-20.916,34.511c-3.547,5.693-7.325,11.217-10.953,16.844l-11.165,16.683
	c-7.492,11.087-15.174,22.045-22.976,32.945c-2.639,3.683-5.308,7.349-7.999,11.003l0.277,0.307l0.812,0.9l0.327,1.18l13.995,50.529
	l13.324-4.592l-11.961-7.11c0.871,0.077,1.74,0.136,2.606,0.176c3.719,0.137,7.389-0.073,11.017-0.579
	c3.613-0.502,7.183-1.313,10.704-2.463l6.907,3.333l5.089-1.754l0.916-0.316l0.98,0.033l82.28,2.786l0.77,0.026l0.743,0.247
	l22.675,7.55c0.705-1.119,1.377-2.259,2.088-3.374l11.028-16.903c3.811-5.549,7.495-11.178,11.448-16.636
	c7.767-11.005,15.796-21.844,24.568-32.212c-5.656,12.347-12.054,24.221-18.714,35.93c-3.26,5.899-6.79,11.626-10.192,17.434
	l-10.612,17.168c-0.314,0.496-0.647,0.98-0.961,1.475l27.895,9.288l62.247-88.214c0.841,4.05,5.221,15.471,6.062,19.52
	c-14.661,23.302-31.877,49.125-49.202,75.056l19.181,6.387l111.074-2.734l0.175-0.004l0.363,0.018l5.465,0.264
	c2.377-3.463,4.789-6.918,7.292-10.35c-1.053,3.568-2.286,7.063-3.591,10.529l19.539,0.943l6.828-11.184l8.415-14.316l17.264-28.423
	l35.481-56.097l36.078-55.601l18.033-27.767l8.876-13.911c1.476-2.35,2.901-4.603,4.256-6.886l1.441-2.574l-25.321-17.993
	l-13.247-8.474l-13.711-8.177l-54.806-33.181l-108.53-67.928C780.843,134.718,709.969,90.511,636.998,50l-85.391,134.96
	l-43.984,69.592c-13.593,21.591-27.314,43.097-40.816,64.751L481.102,325.47z M599.499,318.217
	c-6.528-4.013-12.849-8.306-18.984-12.851c-6.137-4.543-12.095-9.326-17.845-14.391c-5.717-5.111-11.306-10.394-16.341-16.427
	c7.244,3.044,13.934,6.839,20.496,10.805c6.528,4.013,12.849,8.306,18.991,12.841c6.144,4.533,12.102,9.317,17.853,14.382
	c5.719,5.107,11.305,10.395,16.334,16.436C612.752,325.977,606.059,322.187,599.499,318.217z M595.699,489.572
	c-0.57-0.041-1.141-0.089-1.709-0.115c-3.719-0.136-7.389,0.073-11.015,0.591c-3.627,0.516-7.212,1.329-10.748,2.488
	c-1.245,0.422-2.483,0.898-3.716,1.413l103.46-152.764c0,0,2.887,15.212,3.024,22.818
	C642.545,415.389,626.94,440.099,595.699,489.572z M637.223,335.309c1.242-1.495,2.6-2.379,3.983-3.122
	c1.391-0.706,2.825-1.183,4.296-1.464c1.471-0.282,2.98-0.36,4.533-0.209c1.559,0.185,3.146,0.518,4.848,1.465
	c-1.241,1.502-2.597,2.39-3.982,3.13c-1.391,0.706-2.825,1.183-4.298,1.456c-1.472,0.274-2.982,0.352-4.534,0.201
	C640.511,336.578,638.924,336.249,637.223,335.309z M743.455,402.906c-6.57-3.979-12.987-8.133-19.295-12.45
	c-6.309-4.315-12.514-8.781-18.61-13.453c-6.067-4.722-12.092-9.532-17.741-15.067c7.556,2.345,14.614,5.617,21.505,9.176
	c6.861,3.608,13.487,7.621,19.876,11.979c6.39,4.356,12.539,9.068,18.396,14.146c5.825,5.119,11.437,10.509,16.365,16.702
	C756.733,410.7,750.057,406.844,743.455,402.906z M789.803,423.357c-1.446,0.774-2.904,1.366-4.408,1.808
	c-1.504,0.443-3.048,0.745-4.683,0.886c-1.65,0.106-3.349,0.134-5.343-0.329c0.984-1.8,2.31-3.011,3.722-4.04
	c1.428-0.995,2.982-1.728,4.61-2.216c1.627-0.489,3.33-0.723,5.069-0.67c1.745,0.088,3.518,0.382,5.327,1.359
	C792.68,421.639,791.244,422.548,789.803,423.357z M810.081,367.882c4.299-10.054,9.342-19.627,14.651-29.027
	c5.264-9.429,10.898-18.619,16.751-27.667c5.872-9.035,11.952-17.937,18.405-26.596c6.408-8.688,13.076-17.208,20.483-25.25
	c-4.308,10.048-9.355,19.618-14.662,29.02c-5.262,9.431-10.897,18.62-16.74,27.674c-5.862,9.042-11.943,17.942-18.394,26.603
	C824.169,351.329,817.497,359.846,810.081,367.882z M881.904,493.944c-6.329-3.678-12.485-7.578-18.504-11.682
	c-6.02-4.102-11.91-8.395-17.655-12.931c-5.714-4.585-11.355-9.297-16.56-14.757c7.182,2.314,13.857,5.49,20.384,8.906
	c6.497,3.465,12.775,7.285,18.846,11.409c6.073,4.122,11.931,8.56,17.54,13.33c5.577,4.813,10.979,9.861,15.761,15.701
	C894.721,501.09,888.264,497.58,881.904,493.944z M934.612,512.237c-1.332,0.923-2.74,1.626-4.216,2.132
	c-1.476,0.507-3.017,0.826-4.635,0.925c-1.63,0.062-3.307-0.01-5.187-0.67c1.069-1.681,2.342-2.775,3.662-3.734
	c1.332-0.923,2.74-1.626,4.214-2.14c1.473-0.515,3.015-0.834,4.632-0.933c1.629-0.066,3.307,0.011,5.189,0.677
	C937.204,510.183,935.933,511.281,934.612,512.237z M1032.872,323.973c2.411-1.139,4.885-2.054,7.414-2.777
	c2.529-0.724,5.115-1.248,7.764-1.549c2.659-0.267,5.359-0.389,8.23,0.09c-2.189,1.918-4.549,3.235-6.95,4.408
	c-2.411,1.139-4.885,2.054-7.417,2.77c-2.531,0.716-5.117,1.241-7.766,1.541c-2.66,0.263-5.359,0.39-8.228-0.082
	C1028.11,326.462,1030.472,325.148,1032.872,323.973z M1005.959,377.314c-4.594,8.359-9.562,16.474-14.737,24.455
	c-5.193,7.969-10.606,15.794-16.388,23.38c-5.737,7.615-11.739,15.057-18.485,22.015c3.633-8.984,8.009-17.485,12.651-25.813
	c4.597-8.357,9.563-16.474,14.748-24.448c5.204-7.962,10.615-15.789,16.399-23.373c5.739-7.613,11.738-15.058,18.474-22.022
	C1014.979,360.487,1010.599,368.985,1005.959,377.314z M963.849,282.668c6.663,3.368,13.083,7.174,19.251,11.352
	c6.169,4.176,12.078,8.736,17.671,13.682c5.56,4.987,10.882,10.266,15.474,16.352c-6.93-3.17-13.316-6.914-19.643-10.711
	c-6.294-3.838-12.447-7.822-18.509-11.943c-6.063-4.119-12.04-8.364-17.933-12.794c-5.864-4.48-11.707-9.025-17.219-14.283
	C950.289,276.35,957.158,279.349,963.849,282.668z M947.519,491.397l-121.361-74.861c3.647-0.077,7.271-0.322,10.858-0.823
	c4.387-0.611,8.73-1.531,13.024-2.796c0.004-0.001,0.008-0.003,0.012-0.004c24.901,16.557,66.826,38.891,90.579,55.058
	C943.057,477.858,946.051,485.43,947.519,491.397z M932.341,272.835c-22.655,36.956-61.522,95.056-85.082,133.193
	c-3.861,0.055-7.694,0.314-11.487,0.854c-4.218,0.599-8.395,1.491-12.53,2.683l103.343-163.752
	C927.665,251.883,932.341,272.835,932.341,272.835z M898.447,244.793c1.805-0.845,3.66-1.462,5.558-1.884
	c1.898-0.423,3.84-0.643,5.833-0.637c2,0.041,4.033,0.229,6.2,1.027c-1.63,1.635-3.395,2.661-5.193,3.54
	c-1.805,0.844-3.66,1.462-5.56,1.876c-1.9,0.415-3.842,0.636-5.835,0.629c-2.001-0.044-4.033-0.228-6.198-1.019
	C894.884,246.697,896.65,245.676,898.447,244.793z M824.609,199.475c7.088,3.495,13.942,7.425,20.553,11.728
	c6.612,4.301,12.976,8.986,19.035,14.061c6.027,5.117,11.827,10.53,16.922,16.769c-7.36-3.265-14.193-7.122-20.967-11.037
	c-6.742-3.957-13.347-8.067-19.86-12.321c-6.514-4.251-12.943-8.634-19.284-13.207c-6.313-4.623-12.603-9.317-18.559-14.73
	C810.206,192.9,817.493,196.03,824.609,199.475z M804.018,404.483l-119.482-75.928c0.501,0.015,1.004,0.041,1.504,0.049
	c4.477,0.03,8.905-0.286,13.291-0.899c3.903-0.543,7.765-1.376,11.595-2.434c24.888,16.539,63.872,37.592,87.726,53.8
	C800.268,387.938,804.018,404.483,804.018,404.483z M794.098,189.024c-24.794,40.326-56.926,87.986-82.358,128.949
	c-0.121-0.002-0.242-0.01-0.363-0.012c-4.477-0.029-8.905,0.286-13.29,0.911c-4.385,0.623-8.728,1.542-13.022,2.808
	c-0.521,0.158-1.04,0.336-1.56,0.503l102.491-162.196C788.915,169.186,794.098,189.024,794.098,189.024z M752.876,150.275
	c2.216-0.982,4.486-1.737,6.802-2.299c2.316-0.562,4.682-0.923,7.101-1.057c2.428-0.1,4.891-0.054,7.5,0.6
	c-2.026,1.769-4.198,2.931-6.406,3.947c-2.216,0.982-4.486,1.737-6.804,2.291c-2.318,0.554-4.683,0.915-7.103,1.049
	c-2.429,0.097-4.891,0.055-7.498-0.592C748.496,152.452,750.67,151.294,752.876,150.275z M727.125,191.544
	c-2.754,5.183-5.768,10.201-8.643,15.305l-8.991,15.084c-6.086,9.999-12.451,19.827-19.017,29.543
	c-6.573,9.712-13.37,19.295-20.892,28.472c4.316-11.054,9.455-21.645,14.918-32.047c5.469-10.399,11.239-20.625,17.386-30.621
	c3.138-4.958,6.224-9.949,9.433-14.862c3.294-4.861,6.47-9.794,9.927-14.551c6.777-9.598,13.863-18.998,21.73-27.879
	C738.218,170.857,732.777,181.269,727.125,191.544z M680.912,109.15c6.799,3.342,13.509,6.844,20.104,10.626
	c6.594,3.779,13.067,7.848,19.283,12.365c6.179,4.558,12.188,9.473,17.327,15.39c-7.282-2.853-14.122-6.082-20.953-9.385
	c-6.799-3.342-13.509-6.844-20.098-10.636c-6.588-3.79-13.062-7.858-19.277-12.376c-6.176-4.562-12.188-9.472-17.333-15.379
	C667.241,102.616,674.078,105.852,680.912,109.15z M640.836,72.867c2.307,7.973,7.711,18.915,10.018,26.887
	c-21.368,36.894-58.602,90.42-81.391,128.805c-3.493-0.4-6.985-0.65-10.478-0.643c-4.429,0.006-8.858,0.312-13.286,0.967
	c-0.408,0.064-0.817,0.145-1.225,0.213L640.836,72.867z M545.7,235.874c4.429,0.653,8.858,0.957,13.287,0.961
	c3.974,0.005,7.947-0.283,11.92-0.806c26.799,12.835,69.021,38.28,91.026,52.759c0.871,6.07,2.798,19.5,3.669,25.57l-121.415-78.746
	C544.691,235.697,545.195,235.795,545.7,235.874z M962.54,519.659c-3.875,2.431-7.763,4.841-11.581,7.36
	c-0.842,0.553-1.689,1.098-2.535,1.645c2.093-4.029,4.16-8.072,6.176-12.144c1.507-3.044,2.976-6.109,4.429-9.183h23.812
	c-2.883,1.691-5.766,3.381-8.618,5.121C970.294,514.804,966.404,517.211,962.54,519.659z M999.871,541.079
	c-1.88-6.918-3.921-13.777-6.059-20.601l13.346,15.622C1004.708,537.733,1002.289,539.406,999.871,541.079z M979.183,554.829
	l-39.594,20.824c-2.358-2.196-4.698-4.415-7.104-6.55c-3.785-3.428-7.669-6.729-11.515-10.079
	c-3.905-3.274-7.759-6.614-11.706-9.835c-1.724-1.402-3.436-2.819-5.152-4.231c3.594,0.127,7.189,0.239,10.786,0.283
	c6.366,0.141,12.732,0.248,19.102,0.237c8.19,1.951,16.417,3.756,24.669,5.463C965.473,552.364,972.313,553.655,979.183,554.829z
	 M1065.869,560.431c-3.638-0.324-7.275-0.617-10.905-0.77c-7.149-0.308-14.282-0.272-21.403-0.002
	c-8.198-0.575-16.413-0.886-24.657-0.729c-3.026,0.021-6.061,0.177-9.097,0.358l-11.533-1.648l51.629-39.101l36.718,43.198
	c-0.165,0.039-0.331,0.073-0.495,0.112C1072.697,561.198,1069.282,560.793,1065.869,560.431z M1051.015,566.905l7.189-0.358
	c-6.641,1.86-13.256,3.799-19.849,5.796c-2.063,0.648-4.122,1.308-6.184,1.961l-40.101,8.772l1.278-19.651
	c0.935,0.205,1.868,0.424,2.803,0.626c4.095,0.786,8.191,1.562,12.302,2.108c8.214,1.191,16.458,1.91,24.72,2.361l0.287,0.016
	l0.208-0.012C1039.459,568.178,1045.241,567.618,1051.015,566.905z M917.221,594.591c0.188,0.018,0.375,0.029,0.563,0.046
	c-0.052,0.036-0.105,0.071-0.158,0.106L917.221,594.591z M1089.063,573.964l-64.725,39.86l-74.216-6.833l-28.414-10.71
	c0.706-0.38,1.41-0.765,2.115-1.147c4.055,0.315,8.109,0.592,12.16,0.784c6.252,0.375,12.498,0.507,18.746,0.737
	c6.244,0.084,12.492,0.286,18.733,0.274c6.241-0.029,12.486,0.068,18.724-0.063l0.638-0.013l0.665-0.226
	c7.949-2.698,15.923-5.325,23.797-8.238c7.919-2.785,15.758-5.796,23.595-8.816c10.407-4.132,20.771-8.387,31.01-12.999
	L1089.063,573.964z M1098.743,613.825l-54.989-4.685c6.042-4.181,12.057-8.401,18.005-12.721
	c7.258-5.24,14.452-10.575,21.535-16.075l5.769-3.723l-1.708,19.74L1098.743,613.825z M931.811,590.794
	c5.482-3.001,10.849-6.192,16.276-9.282c8.137-4.798,16.21-9.701,24.238-14.678l11.582-5.839l4.366,24.422L931.811,590.794z
	 M938.997,576.466l-18.991,11.988l-4.619,6.96l-14.079-42.921l-1.224-3.732c2.001,1.494,4.008,2.981,6,4.485
	c4.071,3.063,8.235,6.007,12.348,9.016c4.172,2.934,8.306,5.917,12.539,8.773c2.203,1.519,4.469,2.96,6.705,4.437L938.997,576.466z
	 M996.581,539.609l-17.418,12.401l-39.652-11.044l2.949-1.758c3.931-2.343,7.766-4.836,11.654-7.246
	c3.892-2.404,7.715-4.916,11.551-7.408c3.847-2.475,7.667-4.991,11.448-7.569c2.309-1.54,4.586-3.131,6.873-4.704L996.581,539.609z
	 M837.679,562.914c-7.852-2.654-15.773-5.016-23.726-7.24c-10.146-2.876-20.37-5.415-30.612-7.881
	c-10.267-2.358-20.55-4.65-30.913-6.604c-1.549-0.298-3.102-0.58-4.654-0.867l-6.922-1.775l-8.681-2.226
	c6.103-0.914,12.197-1.903,18.285-2.953l4.576-0.34l32.528,10.912l0.902,0.303l0.964-0.022l0.55-0.012l1.338,0.462l19.188-0.921
	l74.039-1.655c-5.326,3.091-10.623,6.235-15.837,9.528c-3.622,2.23-7.171,4.588-10.724,6.941c-1.297,0.873-2.585,1.762-3.873,2.65
	c-0.656,0.066-1.314,0.121-1.971,0.189C847.313,561.868,842.495,562.383,837.679,562.914z M910.916,596.596
	c-7.917-12.592-16.254-24.876-24.701-37.08l-0.78-1.127l-1.489,0.123c-8.052,0.668-16.098,1.383-24.139,2.153
	c3.697-1.702,7.395-3.403,11.026-5.223c6.674-3.249,13.239-6.694,19.756-10.226c1.406,3.348,2.866,6.673,4.315,10.003
	c1.887,4.302,3.902,8.549,5.903,12.803c0.631,1.307,1.277,2.608,1.918,3.911l10.568,25.731l-1.052,0.727L910.916,596.596z
	 M689.939,511.191l61.597,20.664c-7.655,0.299-15.3,0.685-22.933,1.188c-10.57,0.698-21.123,1.549-31.666,2.499
	c-7.605-2.246-15.253-4.336-22.876-6.513c-7.813-2.092-15.609-4.245-23.441-6.269l-0.783-0.202l-0.692,0.201
	c-10.549,3.063-21.071,6.221-31.55,9.537c-10.478,3.323-20.923,6.764-31.276,10.541l-6.534-4.743l-0.345-1.222l-0.39-1.381
	l0.381-1.094c1.399-1.7,2.747-3.431,4.059-5.184c3.059-4.209,5.858-8.577,8.436-13.082l1.326-2.318l16.164-5.53L689.939,511.191z
	 M647.918,529.545l34.571,31.449l-29.204-11.908l-10.968-4.83l-0.126-0.055l-0.132-0.023l-33.875-5.866
	c3.475-0.769,6.953-1.527,10.418-2.328c4.341-1.006,8.67-2.054,12.998-3.108l0.049,0.031L647.918,529.545z M687.63,555.771
	l-29.917-25.188c4.922,1.396,9.847,2.779,14.768,4.175c7.757,2.063,15.488,4.218,23.266,6.207l0.006,0.012l3.404,6.875
	l12.232,24.702l-0.118,0.111c0.067,0.019,0.134,0.038,0.201,0.056l2.652,5.355l-22.956-19.327L687.63,555.771z M719.652,545.726
	l-12.937-5.875c5.987-0.77,11.969-1.578,17.947-2.433c8.827,3.075,17.745,5.763,26.705,8.271c10.145,2.877,20.37,5.416,30.61,7.889
	c10.266,2.365,20.549,4.657,30.911,6.613c3.47,0.668,6.95,1.298,10.434,1.905l5.863,1.523l-14.104,1.942
	c-8.797,1.092-17.588,2.245-26.365,3.523c-2.255,0.328-4.505,0.695-6.759,1.037l-6.588,0.907l-26.011-11.812l-13.436-6.102
	l-16.187-7.351c-0.017-0.165-0.026-0.33-0.044-0.495C719.676,545.422,719.667,545.574,719.652,545.726z M575.967,521.852
	c2.314-0.725,4.635-1.431,6.954-2.143c-1.318,2.239-2.577,4.515-3.77,6.831c-2.195,4.417-4.267,8.91-5.731,13.777l-0.63,0.564
	l-0.623-0.182L547.383,530c4.72-1.216,9.396-2.562,14.088-3.859C566.302,524.707,571.159,523.352,575.967,521.852z M557.836,508.853
	l2.523,9.188l-17.573,5.365l9.873-25.875L557.836,508.853z M498.373,437.111l44.413,50.489l-5.315,40.601l-0.513-0.197l-8.235-4.108
	l-0.994-2.805l-1.264-17.172l-23.157-18.216L498.373,437.111z M481.087,358.013l19.436,21.395l-10.122,13.287l-15.9-25.435
	l-10.367-16.583l-22.704-36.32l27.083,29.814L481.087,358.013z M420.467,365.35l4.669-13.575l-50.14-12.226l-45.934,1.636v-7.54
	h46.693l54.286-14.063l1.076,16.037l15.172,14.808c2.419,2.79,4.837,5.583,7.271,8.359c5.231,6.013,10.532,11.962,15.84,17.904
	c-5.986-1.105-11.976-2.192-17.961-3.298l-5.287-0.977L420.467,365.35z M475.596,445.843l4.176-20.12l-8.795-22.777l-13.223-12.907
	v-6.988l13.885,6.964c3.961,2.001,7.94,3.965,11.924,5.919l6.838,3.976v63.776L475.596,445.843z M435.736,263.245l31.924,26.953
	l-44.451,5.505L435.736,263.245z M384.515,268.415l20.092-11.623l9.87,2.551l-10.953,24.199c-0.623-0.501-1.236-1.016-1.863-1.514
	c-5.375-4.338-10.761-8.663-16.22-12.9C385.136,268.885,384.821,268.656,384.515,268.415z M347.521,268.283l-21.623,17.486
	l29.104-37.956v10.815l8.605,4.996l5.694,14.046l35.742,15.726c-4.191-0.384-8.384-0.755-12.573-1.158
	c-7.883-0.667-15.767-1.313-23.661-1.869c-7.343-0.523-14.694-0.963-22.05-1.349l-6.688-0.91L347.521,268.283z M329.062,309.938
	l-5.315-19.74l15.843,0.946c1.74,0.267,3.479,0.542,5.219,0.807c7.835,1.147,15.679,2.212,23.529,3.201
	c7.85,0.993,15.709,1.898,23.571,2.781c2.762,0.278,5.522,0.577,8.282,0.872c-6.648,1.053-13.278,2.185-19.878,3.462
	c-7.105,1.296-14.164,2.808-21.233,4.27c-6.726,1.504-13.465,2.95-20.162,4.587L329.062,309.938z M361.944,251.26l-2.638-3.13
	l37.552,2.357l40.397-18.105L490.15,263.1c-0.022,0.035-0.044,0.07-0.066,0.105l-70.862-9.07H365.82
	C364.529,253.174,363.24,252.213,361.944,251.26z M817.291,577.986l-27.414,9.423l-17.231,3.606l-4.618-17.109
	c7.036-0.277,14.064-0.622,21.081-1.072c10.633-0.68,21.25-1.511,31.855-2.452c10.603-0.966,21.203-1.963,31.782-3.153
	c10.135-1.076,20.254-2.314,30.369-3.588c8.302,10.628,16.703,21.185,25.435,31.497l-30.604-4.525l-4.954-0.732l-4.897,0.345
	l-19.711,1.39l-11.989,7.213L817.291,577.986z M545.622,464.363l3.689,13.436l-6.356-5.406l-1.68-1.429l-27.527-23.413l4.046-14.156
	L545.622,464.363z M329.12,310.456l-0.058-0.518l3.33,0.783C331.303,310.625,330.213,310.532,329.12,310.456z M403.088,306.522
	l27.759,6.438l0.298,0.069l5.729,1.329c-10.898,1.276-21.614,3.287-32.294,5.446c-5.319,1.164-10.661,2.235-15.947,3.531
	c-5.195,1.223-10.387,2.456-15.547,3.821c-8.559,0.045-17.118,0.318-25.677,0.746c-4.345,0.205-8.689,0.505-13.034,0.841
	c-1.024,0.082-2.048,0.182-3.072,0.272l-0.092-0.002l-1.534-13.605c2.842,0.463,5.691,0.864,8.536,1.302l0.368,0.057l0.533-0.099
	c5.826-1.079,11.618-2.316,17.412-3.54L403.088,306.522z M513.574,428.699l0.173,0.82l-4.366,11.958l-11.009-13.097l-1.837-16.027
	l-1.579-13.773l1.563-2.157l7.928-10.94l8.861,41.954l0.037,1.007L513.574,428.699z M470.976,284.504l-25.543-21.259l37.375,3.546
	L470.976,284.504z M738.481,674.414c-6.816,10.658-6.064,18.172-5.114,27.685c1.074,10.793,2.416,24.222-8.297,40.971
	c-10.71,16.747-23.464,21.163-33.713,24.712c-9.034,3.128-16.169,5.599-22.988,16.257c-6.816,10.656-6.064,18.17-5.114,27.684
	c1.077,10.791,2.416,24.219-8.294,40.967c-10.71,16.749-23.464,21.166-33.713,24.713c-9.036,3.129-16.171,5.6-22.988,16.259
	c-6.816,10.656-6.066,18.17-5.115,27.684c1.076,10.791,2.418,24.219-8.292,40.967c-10.534,16.469-23.04,21.007-33.198,24.527
	c-6.861-4.722-13.764-9.375-20.694-13.984c4.666-2.479,9.225-4.073,13.372-5.508c9.033-3.128,16.168-5.596,22.982-16.251
	c6.816-10.656,6.066-18.17,5.115-27.684c-1.076-10.791-2.418-24.219,8.292-40.967c10.711-16.749,23.466-21.164,33.714-24.713
	c9.036-3.129,16.171-5.6,22.988-16.26c6.817-10.656,6.065-18.17,5.115-27.684c-1.077-10.79-2.418-24.219,8.294-40.967
	c10.71-16.747,23.464-21.163,33.713-24.712c9.034-3.128,16.169-5.599,22.988-16.257c6.816-10.659,6.066-18.173,5.117-27.688
	c-1.077-10.791-2.416-24.221,8.294-40.968c10.713-16.75,23.467-21.167,33.715-24.716c9.034-3.13,16.172-5.602,22.991-16.262
	c5.583-8.729,6.087-15.35,5.565-22.688l10.182-2.295c3.437-0.786,6.879-1.551,10.319-2.322c0.971,10.357,1.388,23.016-8.531,38.521
	c-10.713,16.75-23.467,21.167-33.715,24.716C752.438,661.281,745.3,663.754,738.481,674.414z M523.754,848.043
	c-6.814,10.656-6.064,18.17-5.114,27.682c1.077,10.791,2.418,24.221-8.292,40.968c-9.472,14.811-20.54,19.972-30.061,23.422
	l-18.358-11.512l-3.721-2.263c4.052-1.98,7.994-3.357,11.62-4.612c9.033-3.126,16.168-5.596,22.982-16.251
	c6.817-10.658,6.066-18.172,5.117-27.684c-1.077-10.791-2.419-24.219,8.291-40.967c10.713-16.749,23.467-21.164,33.715-24.713
	c9.034-3.129,16.171-5.6,22.988-16.259c6.816-10.656,6.065-18.17,5.115-27.682c-1.077-10.79-2.418-24.219,8.292-40.967
	c10.711-16.749,23.466-21.164,33.714-24.713c9.034-3.128,16.171-5.599,22.987-16.257c6.817-10.659,6.068-18.173,5.117-27.687
	c-1.076-10.791-2.418-24.222,8.295-40.97c10.713-16.749,23.467-21.166,33.715-24.716c6.488-2.247,11.995-4.171,17.111-9.017
	l15.987,12.199l0.685,0.523c-9.049,9.734-18.806,13.136-26.973,15.965c-9.034,3.129-16.172,5.6-22.991,16.261
	c-6.816,10.659-6.066,18.173-5.117,27.687c1.077,10.791,2.419,24.222-8.294,40.97c-10.711,16.749-23.464,21.164-33.713,24.712
	c-9.034,3.129-16.171,5.599-22.987,16.258c-6.817,10.658-6.066,18.17-5.117,27.684c1.077,10.79,2.419,24.218-8.291,40.965
	c-10.713,16.749-23.466,21.166-33.714,24.713C537.709,834.913,530.572,837.384,523.754,848.043z M449.25,802.425
	c-6.817,10.658-6.066,18.172-5.117,27.684c1.077,10.791,2.419,24.219-8.291,40.967c-9.634,15.063-20.915,20.143-30.545,23.595
	c-1.102-0.636-2.19-1.294-3.296-1.924c-6.56-3.801-13.147-7.557-19.752-11.286c4.562-2.389,9.015-3.944,13.073-5.349
	c9.033-3.126,16.168-5.596,22.982-16.251c6.816-10.656,6.065-18.17,5.115-27.682c-1.077-10.791-2.418-24.221,8.292-40.968
	c10.711-16.749,23.466-21.164,33.714-24.713c9.036-3.129,16.171-5.6,22.988-16.259c6.816-10.656,6.066-18.17,5.115-27.684
	c-1.076-10.79-2.418-24.219,8.292-40.965c10.711-16.749,23.466-21.164,33.714-24.713c9.034-3.128,16.171-5.599,22.987-16.257
	c6.817-10.658,6.066-18.173,5.118-27.687c-1.077-10.791-2.418-24.222,8.294-40.97c4.214-6.59,8.745-11.252,13.315-14.722
	l22.971-7.398l27.297,4.901c-7.834,6.851-15.881,9.687-23.057,12.174c-9.036,3.129-16.172,5.6-22.99,16.261
	c-6.817,10.659-6.068,18.173-5.118,27.688c1.076,10.791,2.416,24.221-8.294,40.968c-10.713,16.749-23.466,21.164-33.714,24.712
	c-9.034,3.129-16.171,5.599-22.987,16.258c-6.816,10.656-6.066,18.17-5.115,27.682c1.076,10.791,2.418,24.219-8.292,40.967
	c-10.711,16.749-23.466,21.164-33.714,24.713C463.203,789.295,456.067,791.766,449.25,802.425z M397.918,459.207
	c-3.828,7.248-7.974,14.311-12.034,21.428c-4.158,7.058-8.47,14.022-12.761,20.999c-4.442,6.882-8.892,13.759-13.46,20.558
	c-4.685,6.722-9.268,13.509-14.169,20.08c-9.669,13.228-19.786,26.141-30.785,38.367c7.975-14.381,16.457-28.344,25.006-42.248
	c4.193-7.006,8.622-13.848,12.87-20.809l13-20.708l13.115-20.635c4.452-6.832,8.735-13.767,13.253-20.567
	c8.878-13.696,17.832-27.362,27.376-40.751C413.011,430.104,405.7,444.789,397.918,459.207z M284.644,618.004
	c4.58-6.387,9.344-12.666,14.913-18.472c-2.364,7.69-5.533,14.906-8.886,22.015c-3.402,7.079-7.106,13.982-11.069,20.732
	c-3.96,6.751-8.19,13.345-12.72,19.761c-4.576,6.39-9.346,12.665-14.923,18.466c2.355-7.695,5.519-14.915,8.876-22.021
	c3.403-7.079,7.106-13.982,11.079-20.726C275.884,631.014,280.114,624.421,284.644,618.004z"/>
</svg>
