<?xml version="1.0" standalone="no"?>
<!DOCTYPE svg PUBLIC "-//W3C//DTD SVG 20010904//EN"
 "http://www.w3.org/TR/2001/REC-SVG-20010904/DTD/svg10.dtd">
<svg version="1.0" xmlns="http://www.w3.org/2000/svg"
 width="499.000000pt" height="499.000000pt" viewBox="0 0 499.000000 499.000000"
 preserveAspectRatio="xMidYMid meet">

<g transform="translate(0.000000,499.000000) scale(0.100000,-0.100000)"
fill="#000000" stroke="none">
<path d="M3555 4201 c-104 -60 -265 -222 -445 -447 -236 -295 -420 -590 -420
-673 0 -26 -8 -44 -32 -69 -21 -21 -37 -50 -43 -79 l-10 -47 -78 -17 -79 -17
9 27 c16 51 8 163 -14 206 -24 47 -112 165 -121 165 -4 0 -17 -15 -29 -32 -20
-29 -23 -30 -29 -12 -30 86 -60 130 -170 245 -144 151 -224 247 -385 460 -159
210 -230 285 -283 295 -86 15 -95 -58 -49 -398 15 -112 27 -230 26 -263 -3
-86 32 -251 82 -386 24 -65 55 -159 70 -210 32 -112 70 -191 129 -270 l44 -58
-5 -165 c-4 -107 -2 -180 5 -209 9 -33 9 -65 1 -118 -6 -41 -13 -91 -16 -112
-4 -29 -18 -51 -60 -93 -50 -50 -55 -58 -49 -87 5 -29 1 -38 -39 -76 -48 -45
-68 -77 -79 -124 -6 -26 -5 -27 13 -18 16 9 21 7 27 -11 5 -16 1 -26 -14 -39
-22 -17 -29 -18 -397 -40 -104 -6 -199 -16 -210 -22 l-20 -11 20 -4 c11 -3
136 1 277 8 141 7 262 9 268 5 8 -5 10 -22 7 -46 -3 -22 -1 -41 3 -44 5 -3 23
13 40 35 18 23 35 39 37 36 8 -8 -18 -114 -30 -125 -7 -5 -58 -19 -115 -31
-146 -29 -267 -72 -428 -149 -129 -63 -164 -85 -152 -97 3 -2 56 19 119 47
143 65 306 123 429 155 137 35 135 35 172 -41 18 -36 35 -65 39 -65 9 0 19 54
19 100 0 25 5 40 16 44 29 11 338 5 454 -8 63 -8 117 -12 119 -10 28 26 -156
54 -410 61 l-197 6 20 58 c23 69 16 67 169 44 137 -21 260 -48 350 -78 41 -14
76 -24 78 -22 2 2 -8 15 -23 28 -38 36 -135 64 -355 102 -108 19 -206 37 -219
40 -22 5 -22 7 18 53 55 66 51 103 -9 80 -13 -5 -26 -7 -28 -5 -2 3 12 25 31
49 45 59 56 82 56 110 0 14 13 37 30 53 16 16 44 56 62 89 25 49 32 73 32 121
0 33 -3 69 -7 80 -6 14 2 34 25 70 l33 50 3 -49 c2 -31 -1 -52 -9 -57 -10 -6
-9 -17 6 -49 18 -40 18 -44 0 -155 -17 -107 -17 -115 -1 -139 25 -39 54 -52
139 -66 82 -12 95 -10 81 12 -5 7 -9 56 -9 108 0 110 -15 148 -85 215 -41 40
-102 131 -114 171 -6 19 3 27 61 60 37 21 76 46 87 55 31 30 150 88 212 104
78 20 112 19 170 -6 41 -19 59 -21 127 -16 43 4 107 14 141 22 62 16 63 16
143 -14 142 -52 328 -157 383 -216 23 -25 25 -33 22 -108 -4 -98 18 -171 73
-235 28 -32 34 -46 29 -67 -5 -20 4 -39 43 -93 42 -57 48 -71 40 -90 -7 -16
-5 -28 7 -48 10 -14 16 -27 14 -29 -2 -2 -93 -29 -203 -59 -256 -69 -347 -105
-454 -179 -59 -40 -38 -46 32 -9 81 44 550 196 579 189 14 -4 30 -18 36 -33
11 -23 10 -26 -8 -31 -24 -6 -25 -20 -4 -62 9 -18 12 -36 8 -41 -5 -4 -65 -11
-134 -14 -150 -8 -306 -32 -337 -52 -27 -17 -31 -39 -5 -29 95 39 441 70 501
46 16 -7 32 -19 35 -27 4 -12 0 -11 -25 2 -17 8 -33 14 -35 11 -2 -2 -7 -26
-10 -53 -7 -51 -19 -67 -44 -59 -46 13 -297 26 -322 16 -56 -21 -29 -31 85
-31 104 0 223 -13 235 -25 3 -3 0 -16 -6 -30 -10 -22 -17 -25 -69 -25 -51 0
-63 -4 -102 -35 -53 -42 -81 -51 -112 -35 -15 9 -51 10 -118 6 l-97 -7 -32 50
c-54 82 -131 134 -232 155 -69 14 -69 14 43 104 42 35 77 66 77 69 0 14 -74
-9 -101 -31 -66 -56 -132 -53 -229 9 -30 19 -63 35 -73 35 -26 0 -17 -9 87
-95 47 -38 85 -73 86 -77 0 -3 -22 -11 -50 -18 -96 -23 -193 -102 -236 -193
-12 -25 -25 -37 -47 -41 -57 -11 -85 -7 -92 14 -7 23 -15 24 -50 8 -31 -14
-32 -27 -4 -57 20 -21 27 -22 89 -16 l67 7 5 -89 c5 -108 28 -163 98 -237 74
-78 150 -110 260 -110 113 0 187 32 264 115 74 80 98 146 94 256 l-3 83 60 7
c70 9 91 7 123 -9 34 -18 94 -113 130 -209 43 -110 114 -259 124 -259 18 0 4
42 -83 254 -85 206 -90 223 -77 246 14 25 55 42 130 55 21 3 49 18 65 34 49
49 88 55 171 27 76 -26 113 -18 45 10 -127 52 -135 59 -115 91 5 8 13 9 22 3
36 -23 43 -13 37 55 l-6 65 37 -5 c20 -3 102 -12 182 -21 237 -25 325 -51 447
-134 78 -53 89 -47 18 10 -109 86 -193 112 -455 140 -272 30 -253 25 -247 65
3 19 -1 58 -9 87 -7 29 -14 54 -14 56 0 1 8 2 19 2 10 0 25 9 32 20 20 29 210
68 367 77 126 6 166 22 65 25 -93 3 -129 -1 -297 -29 l-159 -26 -18 22 c-10
12 -21 46 -24 76 -6 41 -15 63 -36 86 -16 17 -45 63 -64 103 -19 39 -52 103
-74 143 -33 59 -37 72 -24 77 11 5 14 14 9 36 -5 28 -4 30 26 30 l32 0 -28 29
c-26 28 -28 32 -16 63 7 18 14 89 16 158 3 69 7 139 10 156 2 16 34 75 70 130
108 160 174 317 174 411 0 36 80 301 135 447 54 146 69 231 62 361 -3 61 -14
148 -24 195 -17 83 -19 85 -48 88 -19 1 -49 -9 -80 -27z m-2089 -99 c95 -119
334 -546 334 -595 0 -7 -9 -18 -20 -25 -11 -7 -20 -19 -20 -27 0 -17 150 -249
157 -242 2 3 -5 38 -17 77 -14 46 -19 85 -16 105 5 27 -8 66 -69 206 -42 96
-87 185 -99 199 -12 14 -39 49 -59 78 -20 28 -53 75 -73 102 -20 28 -33 50
-31 50 6 0 67 -73 263 -314 75 -93 180 -214 233 -270 106 -112 156 -172 190
-229 l23 -37 -32 -40 c-17 -22 -41 -42 -53 -45 -12 -3 -65 -1 -117 4 l-95 9
-36 42 c-35 40 -37 41 -54 24 -32 -32 -8 -236 43 -360 l21 -52 -71 -31 c-39
-17 -76 -31 -82 -31 -6 0 -20 15 -31 33 -17 28 -20 29 -23 12 -2 -11 -7 -24
-12 -28 -13 -15 -57 76 -99 203 -22 69 -62 168 -89 220 -27 52 -58 124 -70
160 -27 85 -46 339 -47 615 0 148 -4 216 -13 232 -6 12 -12 24 -12 27 0 17 21
-3 76 -72z m2070 1 c-18 -27 -43 -70 -55 -97 -12 -27 -46 -82 -77 -121 -45
-59 -54 -77 -48 -99 4 -17 -1 -36 -15 -59 -11 -18 -23 -53 -27 -77 -5 -35 -25
-70 -84 -150 -43 -58 -90 -129 -104 -158 l-27 -53 37 7 37 7 -42 -61 c-36 -54
-49 -82 -37 -82 11 0 110 100 123 124 13 26 13 29 -6 43 -12 8 -21 20 -21 26
0 24 102 187 154 245 40 45 59 77 75 127 12 37 20 74 17 82 -3 8 7 33 23 56
15 23 56 95 91 160 35 64 67 117 70 117 11 0 30 -83 40 -167 15 -135 -24 -342
-120 -648 -23 -71 -48 -161 -56 -198 -7 -37 -21 -82 -30 -100 -38 -75 -159
-277 -166 -277 -4 0 -8 10 -8 21 0 17 -8 11 -42 -30 -23 -28 -44 -51 -48 -51
-4 0 -5 15 -2 33 l4 32 -35 -34 c-22 -21 -42 -31 -51 -28 -14 6 -13 10 4 40
22 37 73 269 74 337 1 52 5 51 -130 37 l-71 -7 -17 45 c-10 25 -22 45 -28 45
-6 0 -46 -20 -90 -45 -63 -36 -80 -41 -85 -29 -29 76 354 590 694 931 57 57
105 103 108 103 3 0 -10 -21 -29 -47z m-1582 -2059 c21 -20 20 -27 -4 -49 -19
-17 -21 -17 -40 0 -23 21 -25 36 -8 53 16 16 33 15 52 -4z"/>
<path d="M2941 2314 c-23 -53 -23 -55 -5 -69 28 -21 37 -18 63 22 13 21 17 34
10 30 -52 -21 -49 -22 -43 27 4 25 5 46 2 46 -2 0 -15 -25 -27 -56z"/>
<path d="M1990 2350 c0 -5 5 -31 10 -57 9 -39 15 -49 31 -49 17 0 19 5 14 26
-7 25 -43 90 -51 90 -2 0 -4 -4 -4 -10z"/>
<path d="M1914 2315 c-3 -8 8 -38 25 -67 28 -48 31 -50 31 -25 0 26 -34 107
-46 107 -2 0 -7 -7 -10 -15z"/>
<path d="M3102 2228 c-16 -29 -56 -77 -87 -107 -76 -72 -89 -103 -87 -219 1
-52 -3 -103 -9 -114 -10 -19 -9 -20 12 -15 13 3 49 9 79 13 104 13 140 47 140
132 0 30 -7 79 -16 109 -16 56 -14 84 13 141 12 25 13 35 3 47 -6 8 -9 23 -5
34 13 42 -15 28 -43 -21z m-12 -198 c0 -11 -10 -30 -21 -41 -20 -20 -22 -20
-31 -4 -14 24 6 65 32 65 13 0 20 -7 20 -20z"/>
<path d="M2455 1641 c-33 -4 -69 -12 -80 -18 -11 -6 -35 -18 -52 -25 -18 -7
-33 -19 -33 -25 0 -7 -11 -13 -24 -13 -40 0 -39 -17 1 -25 29 -5 40 -3 49 10
8 11 20 15 32 11 14 -5 25 0 36 16 15 21 17 21 28 5 12 -16 17 -14 63 18 46
33 68 57 48 53 -4 0 -35 -4 -68 -7z"/>
<path d="M2573 1623 c-23 -5 -49 -30 -40 -39 3 -3 30 1 60 10 70 20 70 20 64
-5 -6 -21 -3 -23 46 -33 43 -10 33 15 -18 47 -44 26 -64 29 -112 20z"/>
<path d="M1763 1215 c-146 -28 -183 -39 -252 -75 -45 -23 -81 -46 -81 -51 0
-13 1 -12 85 21 42 17 82 30 91 30 8 0 35 -22 59 -48 25 -27 67 -59 95 -72 53
-25 58 -34 35 -64 -8 -11 -15 -32 -15 -47 0 -15 -27 -107 -59 -203 -55 -160
-64 -210 -31 -171 6 8 37 74 68 147 32 73 68 150 81 171 13 21 21 46 18 57 -4
15 7 31 41 60 39 33 44 42 32 51 -8 5 -32 8 -52 5 -32 -3 -51 4 -120 45 -110
66 -124 77 -112 88 5 5 90 21 189 35 99 15 194 29 210 33 27 5 28 7 10 14 -38
15 -120 7 -292 -26z"/>
</g>
</svg>
