<svg width="158" height="178" viewBox="0 0 158 178" fill="none" xmlns="http://www.w3.org/2000/svg">
<path d="M157.156 56.2856V138.53C157.156 150.1 156.381 153.967 140.293 158.33L78.5852 177.36L16.8667 158.33C0.777781 153.967 0 150.1 0 138.53V56.2856C0 44.6744 13.0555 36.0152 25.3259 33.7559L38.2926 30.93C38.7926 31.4411 41.463 34.1522 41.463 34.1522L26.0815 37.5078C15.1111 39.5263 3.82963 47.093 3.82963 56.2856V138.53C3.82963 148.704 3.82963 150.826 17.9296 154.656L78.5852 173.352L139.226 154.656C153.33 150.826 153.33 148.704 153.33 138.53V56.2856C153.33 47.093 142.044 39.5263 131.074 37.5078L115.696 34.1522C115.696 34.1522 118.363 31.4411 118.863 30.93L131.833 33.7559C144.107 36.0152 157.156 44.6744 157.156 56.2856Z" fill="#ED1C24"/>
<path d="M52.2354 115.284C55.3206 115.284 59.5095 109.299 62.7613 103.684C62.2539 108.492 62.9169 112.307 64.628 114.31C65.5836 115.421 66.8391 115.984 68.3687 115.984C74.2947 115.984 79.9428 102.34 80.3873 91.351C81.2465 91.6325 82.165 91.7881 83.0317 91.7881C85.1095 91.7881 85.6984 90.1955 85.7206 89.351L85.7391 88.6807L85.1836 89.051C85.1762 89.051 84.6428 89.4029 83.5021 89.4029C82.1206 89.4029 80.9984 88.8029 80.2687 88.2733C79.8799 85.0473 78.5428 81.6844 76.7836 81.6844C75.4762 81.6844 74.0317 82.9659 74.0317 84.1362C74.0317 85.3992 75.3539 88.0844 77.8428 89.9214V90.0992C77.8428 101.303 72.2799 113.303 68.3687 113.303C67.0465 113.303 66.8428 111.507 66.8428 110.436C66.8428 103.673 70.365 91.5436 70.3984 91.4251L70.4095 91.3251C70.4095 90.2807 69.8799 89.751 68.8354 89.751C67.8021 89.751 66.6947 90.914 65.5391 93.2177C61.728 101.007 55.2058 112.599 52.8762 112.599C52.1095 112.599 51.9984 111.244 51.9984 110.436C51.9984 103.74 58.1687 88.9733 58.228 88.8288L58.2539 88.6918C58.2539 87.7362 57.6836 87.1214 56.791 87.1214C52.9021 87.1214 47.9688 100.284 47.9688 108.347C47.9688 112.818 49.4836 115.284 52.2354 115.284Z" fill="#ED1C24"/>
<path d="M82.351 114.194C83.851 116.146 86.0658 117.138 88.9398 117.138C94.725 117.138 97.9732 110.497 98.1176 110.186C98.1695 110.049 98.1806 109.816 98.0435 109.623C97.8732 109.386 97.5658 109.264 97.1065 109.264C96.0621 109.264 95.7398 109.849 95.7139 109.909C95.688 109.953 93.288 114.442 89.4584 114.442C85.6361 114.442 85.0621 110.112 85.0621 107.534C85.0621 99.5419 90.1361 88.8419 95.3213 88.8419C95.8435 88.8419 96.2213 89.0086 96.4769 89.3604C96.7287 89.6974 96.8584 90.2197 96.8584 90.8678C96.8584 94.6937 92.388 102.19 86.9843 102.19H86.5028L86.6621 102.646C86.6843 102.705 87.1695 104.023 89.2843 104.023C96.1917 104.023 100.44 97.0123 100.44 91.9826C100.44 90.4678 100.047 89.1863 99.3102 88.2678C98.4917 87.2567 97.251 86.7197 95.725 86.7197C87.2028 86.7197 80.3398 97.9123 80.3398 107.179C80.3398 110.053 81.0398 112.479 82.351 114.194Z" fill="#ED1C24"/>
<path d="M102.771 114.194C104.263 116.146 106.485 117.138 109.356 117.138C115.145 117.138 118.389 110.497 118.53 110.186C118.585 110.049 118.597 109.816 118.456 109.623C118.297 109.386 117.978 109.264 117.523 109.264C116.478 109.264 116.16 109.849 116.126 109.909C116.108 109.953 113.704 114.442 109.874 114.442C106.052 114.442 105.478 110.112 105.478 107.531C105.478 99.5419 110.552 88.8419 115.737 88.8419C116.26 88.8419 116.637 89.0086 116.893 89.3604C117.141 89.6974 117.278 90.2197 117.278 90.8715C117.278 94.6937 112.808 102.19 107.404 102.19H106.919L107.078 102.646C107.097 102.705 107.582 104.023 109.704 104.023C116.611 104.023 120.86 97.0123 120.86 91.9826C120.86 90.4678 120.467 89.1863 119.734 88.2678C118.911 87.2567 117.667 86.7197 116.141 86.7197C107.623 86.7197 100.756 97.9123 100.756 107.179C100.756 110.053 101.452 112.479 102.771 114.194Z" fill="#ED1C24"/>
<path d="M43.0534 124.692L43.0497 124.584C43.0275 123.84 42.5719 123.388 41.8534 123.407C40.3978 123.447 39.1312 124.951 38.2534 127.662C37.7349 127.218 36.9386 126.833 35.7497 126.862C28.3904 127.062 22.7275 137.155 22.9497 145.377C23.0201 147.973 23.7015 150.155 24.9126 151.677C26.3015 153.414 28.3126 154.262 30.8756 154.196C36.0349 154.051 38.7349 148.118 38.8719 147.781C38.883 147.733 38.9163 147.466 38.7126 147.229C38.5349 147.025 38.246 146.921 37.8534 146.933C37.1497 146.951 36.783 147.377 36.683 147.618C36.6608 147.659 34.7238 151.647 31.2163 151.744C27.9015 151.833 27.2978 147.94 27.2349 145.614C27.0608 139.147 30.7867 129.136 35.7089 129.003C37.2423 128.959 37.5904 129.955 37.6534 130.199C37.4571 131.37 37.3793 132.64 37.4163 133.973C37.4423 134.966 38.0423 135.484 38.5978 135.47C39.0201 135.455 39.4608 135.125 39.4423 134.425C39.3275 130.214 42.9534 124.84 42.9904 124.784L43.0534 124.692Z" fill="#ED1C24"/>
<path d="M61.3732 155.842C61.0398 155.864 60.8102 156.109 60.5917 156.342C60.3287 156.624 60.0583 156.913 59.588 156.946C58.7843 157.009 58.2657 155.405 58.0028 152.05C57.3769 143.998 59.7843 133.742 59.8102 133.639L59.8176 133.535C59.6769 131.742 58.5843 130.839 56.7324 130.979C51.7435 131.368 47.962 139.427 45.5695 146.602C45.8509 142.72 46.3287 137.509 47.0991 132.639C48.3917 124.216 50.5658 118.139 50.588 118.079L50.6028 117.942C50.5509 117.235 50.0954 116.846 49.3917 116.902C45.2732 117.22 40.8806 134.805 42.188 151.676C42.3917 154.276 42.8398 155.979 44.362 155.861C44.9917 155.813 45.3695 155.394 45.325 154.798C45.2472 153.757 49.3843 139.62 54.4287 134.246C54.6361 134.031 54.8583 133.89 55.0287 133.879C55.0583 133.876 55.1176 133.879 55.1398 133.909C55.1695 133.935 55.1954 134.013 55.1843 134.113C55.0176 134.931 53.5991 142.32 54.1583 149.539C54.6435 155.79 56.6472 159.539 59.3843 159.324C61.0732 159.194 62.0176 156.864 62.062 156.742C62.088 156.679 62.1843 156.327 61.9732 156.068C61.8843 155.946 61.6991 155.816 61.3732 155.842Z" fill="#ED1C24"/>
<path d="M83.295 131.303L83.2728 130.681L82.7543 131.033C82.7543 131.033 82.195 131.415 81.2617 131.448C80.3654 131.474 79.4284 131.192 78.395 130.574C77.7802 127.67 76.2728 124.666 74.6135 124.722C73.4135 124.759 72.3395 126.2 72.3617 127.044C72.4061 128.218 73.8987 130.711 76.258 132.189L76.2728 132.644C76.6135 142.84 72.0247 152.97 68.3543 153.096C67.3765 153.129 66.6024 152.622 66.0543 151.6C65.5284 150.618 65.2172 149.17 65.1617 147.426C64.9543 141.3 67.9691 131.748 72.3802 131.6L72.7876 131.589L72.7061 131.189C72.595 130.652 72.0284 129.64 70.6802 129.689C64.8987 129.881 60.5506 139.34 60.8098 147.044C60.8913 149.589 61.4987 151.715 62.5617 153.203C63.8024 154.922 65.5802 155.763 67.8617 155.689C74.1432 155.481 78.7617 143.592 78.6691 133.307C79.5172 133.544 80.3098 133.644 81.1247 133.615C82.9024 133.555 83.321 132.078 83.295 131.303Z" fill="#ED1C24"/>
<path d="M85.736 131.989C81.836 131.989 79.7656 144.982 79.7656 154.359C79.7656 156.389 79.9471 159.085 81.5175 159.085C82.1767 159.085 82.6508 158.63 82.6508 158.004C82.6508 147.896 87.236 133.893 87.2841 133.752L87.2953 133.644C87.2953 132.607 86.7175 131.989 85.736 131.989Z" fill="#ED1C24"/>
<path d="M84.3394 121.916C83.7542 123.027 83.4023 124.497 83.4023 125.864C83.4023 127.79 84.0801 128.986 85.1727 128.986H85.3431L85.4505 128.846C85.5986 128.638 89.0949 123.797 89.0949 121.82C89.0949 120.153 88.1135 119.801 87.2838 119.801C86.1135 119.801 85.0616 120.557 84.3394 121.916Z" fill="#ED1C24"/>
<path d="M106.97 126.325V126.21C106.97 125.462 106.514 124.995 105.785 124.995C104.292 124.995 102.977 126.484 102.037 129.206C101.388 128.621 100.544 128.325 99.5069 128.325C92.0625 128.325 86.0625 138.377 86.0625 146.706C86.0625 149.336 86.6884 151.554 87.8773 153.129C89.2329 154.925 91.2366 155.836 93.8403 155.836C99.0551 155.836 101.955 149.906 102.111 149.577C102.114 149.525 102.159 149.262 101.966 149.017C101.792 148.799 101.492 148.688 101.088 148.688C100.388 148.688 100.011 149.114 99.9032 149.347C99.881 149.388 97.8032 153.377 94.2477 153.377C90.8847 153.377 90.3847 149.417 90.3847 147.058C90.3847 143.632 91.4255 139.451 93.1032 136.132C94.9255 132.543 97.2255 130.48 99.4181 130.48C100.807 130.48 101.24 131.317 101.37 131.758C101.125 132.94 100.996 134.217 100.996 135.566C100.996 136.566 101.6 137.106 102.155 137.106C102.585 137.106 103.048 136.78 103.048 136.073C103.048 131.814 106.87 126.466 106.903 126.41L106.97 126.325Z" fill="#ED1C24"/>
<path d="M109.546 138.899H109.064L109.227 139.354C109.242 139.406 109.69 140.628 111.627 140.628C117.923 140.628 121.783 134.251 121.783 129.677C121.783 128.295 121.431 127.125 120.757 126.291C120.009 125.362 118.879 124.873 117.483 124.873C109.727 124.873 103.486 135.043 103.486 143.466C103.486 146.08 104.123 148.288 105.32 149.851C106.69 151.628 108.705 152.536 111.323 152.536C116.586 152.536 119.549 146.495 119.686 146.214C119.738 146.08 119.746 145.862 119.616 145.673C119.464 145.447 119.168 145.332 118.734 145.332C117.764 145.332 117.468 145.877 117.438 145.932C117.416 145.973 115.253 150.028 111.801 150.028C108.36 150.028 107.846 146.114 107.846 143.78C107.846 140.336 108.934 136.073 110.683 132.658C112.568 128.977 114.912 126.862 117.12 126.862C117.579 126.862 117.912 127.006 118.138 127.317C118.36 127.614 118.483 128.08 118.483 128.662C118.483 132.121 114.434 138.899 109.546 138.899Z" fill="#ED1C24"/>
<path d="M20.6535 128.716C28.135 128.078 34.8832 124.782 39.6573 119.441C44.161 114.404 46.4424 108.016 45.9202 101.916C45.2202 93.7303 39.3313 89.3118 34.135 85.4192C29.761 82.134 25.9869 79.3044 25.6091 74.8822C25.298 71.2711 26.5276 67.634 29.0721 64.6377C31.5165 61.7563 34.8387 59.8896 37.9572 59.6451L38.2461 59.6229C38.5943 59.5933 38.898 59.5674 39.1535 59.5674C39.4943 59.5674 39.6684 59.6044 39.7943 59.7229C39.2091 61.8303 38.2721 68.5377 39.0054 74.0822C39.1387 75.0933 40.1572 75.7229 41.661 75.7229C42.0869 75.7229 43.1387 75.66 43.661 75.0896C43.8795 74.8489 43.9869 74.5451 43.961 74.234C43.0943 64.0896 47.4054 58.8896 47.8832 58.3489C48.3091 57.9711 48.598 57.1859 48.3313 56.3451C47.7647 54.5526 45.235 53.6377 40.8128 53.6377C39.7091 53.6377 38.4684 53.697 37.1572 53.8081C37.0721 53.8118 36.2535 53.8933 36.135 53.9081L35.9017 53.9303L35.8535 53.9674C31.261 54.7044 26.6239 57.4377 23.1054 61.5044C19.4535 65.7192 17.5869 70.7451 17.9721 75.297C18.4647 81.0266 22.7647 84.0377 27.3165 87.2377C32.4202 90.8192 37.698 94.5081 38.3832 102.53C38.8832 108.334 37.4758 113.697 34.4239 117.69C31.1906 121.916 26.3202 124.364 20.335 124.875C19.9054 124.912 19.4869 124.808 19.0906 124.808H19.0869C13.2461 124.808 12.2091 121.156 12.1128 118.904C11.8684 113.186 17.2387 104.504 26.2054 103.734L27.1795 103.653L26.9869 102.697C26.7869 101.727 25.7869 99.8822 23.4091 99.8822C23.2758 99.8822 23.1387 99.8896 22.9906 99.9007C12.6387 100.79 5.8091 110.401 6.15725 118.475C6.43132 124.945 11.0684 128.808 18.5572 128.808C19.2276 128.808 19.935 128.778 20.6535 128.716Z" fill="#ED1C24"/>
<path d="M136.004 72.3388C132.19 84.0463 127.612 101.094 127.497 114.587C127.423 123.028 129.004 129.943 133.745 129.983C137.653 130.024 140.882 125.517 141.83 123.468C142.253 122.335 144.316 122.665 143.997 123.487C143.682 124.209 139.478 133.439 133.304 133.383C124.753 133.306 121.112 125.035 121.23 111.957C121.338 100.324 124.36 85.1129 128.271 73.5055C126.827 73.7018 125.701 73.687 124.775 73.6833C119.723 73.6388 120.282 68.6907 122.134 68.7092C122.134 68.7092 122.749 69.4388 125.004 69.4611C126.36 69.4722 128.001 69.3796 129.853 69.2981C132.808 61.4944 136.249 56.2722 139.238 56.2981C140.475 56.3092 140.982 57.0388 140.967 58.2722C140.967 58.2722 139.29 62.3759 137.167 68.8426C142.734 68.2759 148.093 67.8092 150.464 67.8314C151.701 67.8425 151.675 70.3129 149.104 70.2907C147.453 70.2759 141.678 71.3537 136.004 72.3388Z" fill="#ED1C24"/>
<path d="M85.711 22.5056C84.5777 20.3278 82.2925 19.0427 80.1555 19.0427C78.0296 19.0427 76.1036 20.1093 74.9629 21.8315L85.3444 22.4538C85.474 22.4649 85.5888 22.4871 85.711 22.5056Z" fill="#ED1C24"/>
<path d="M49.0847 12.6547C49.1329 12.6436 49.1847 12.6325 49.2329 12.6251C49.2958 12.4918 49.3625 12.3658 49.4329 12.2362C49.4884 12.1251 49.544 12.014 49.607 11.9029C49.6958 11.7362 49.7958 11.5807 49.8921 11.4214C49.9551 11.3214 50.0144 11.2177 50.081 11.1177C50.1921 10.951 50.3144 10.7918 50.4329 10.6325C50.4884 10.5584 50.544 10.4733 50.6033 10.3992C50.7847 10.1733 50.9736 9.95103 51.1699 9.74362C51.4292 9.47325 51.7033 9.23251 51.981 8.99918C52.6033 8.48807 53.2773 8.06584 53.9958 7.76584C54.8403 7.41029 55.7996 7.23251 56.8477 7.23251C58.0958 7.23251 59.4884 7.48807 60.9958 7.99548C66.5736 9.86214 70.6625 16.3658 72.4884 20.5288C73.6403 18.6733 75.4329 17.2844 77.5255 16.6473C78.3884 16.351 79.2736 16.1992 80.1514 16.1955C79.9995 15.7362 79.8403 15.2362 79.6773 14.7436C78.9329 12.6473 77.744 10.5733 76.144 8.59918C71.7218 3.13992 67.3403 0.695474 62.2403 0.899177C59.0884 1.0177 54.4218 2.79177 52.3588 4.29547C51.481 4.92881 50.8255 5.63251 50.3514 6.44362C49.5958 7.48807 47.9292 10.077 47.6699 12.9918C48.0588 12.8844 48.4699 12.7844 48.9107 12.6918L49.0847 12.6547Z" fill="#ED1C24"/>
<path d="M83.4828 16.8974C85.2828 17.6085 86.8013 18.8826 87.8235 20.5308C89.6421 16.3715 93.7272 9.86039 99.3087 7.99372C102.079 7.06039 104.457 6.98632 106.312 7.7641C108.375 8.63817 109.987 10.2863 111.101 12.6789C111.635 12.7826 112.172 12.9085 112.72 13.0604C112.387 9.40113 109.742 5.59743 107.949 4.29372C105.887 2.79372 101.212 1.01965 98.068 0.897428C92.9532 0.693725 88.5828 3.13817 84.1643 8.60113C83.2569 9.71965 82.4532 10.9308 81.7754 12.2085C82.2754 13.653 82.968 15.8419 83.2791 16.8159C83.3495 16.8382 83.4161 16.8678 83.4828 16.8974Z" fill="#ED1C24"/>
<path d="M98.5214 25.7301C97.6659 27.6634 96.5103 29.5301 95.0918 31.3412C95.2955 32.0931 95.4622 32.8931 95.5844 33.7412C97.514 31.4782 99.5029 28.456 100.758 25.0597C100.04 25.2264 99.2881 25.4486 98.5214 25.7301Z" fill="#ED1C24"/>
<path d="M110.301 27.9722C109.979 27.461 109.568 26.9796 109.072 26.5536C106.435 29.7425 102.39 32.4907 95.8125 35.9388C95.831 36.1759 95.8532 36.4092 95.8681 36.6536C95.8829 37.1203 95.894 37.5685 95.9014 38.0166C102.987 34.3425 107.453 31.3462 110.301 27.9722Z" fill="#ED1C24"/>
<path d="M99.7363 10.3147C100.077 11.7296 100.303 13.1184 100.418 14.4851C101.018 14.237 101.61 14.011 102.192 13.8221C102.07 12.5221 101.844 11.1777 101.514 9.78511C101.047 9.88881 100.555 10.0221 100.04 10.1925C99.94 10.2296 99.8437 10.2777 99.7363 10.3147Z" fill="#ED1C24"/>
<path d="M59.0547 25.059C60.2991 28.422 62.6251 31.9998 64.7028 34.2368C64.8251 33.4405 64.9806 32.6702 65.1695 31.9294C63.688 30.059 62.1695 27.7035 61.2917 25.7294C60.5251 25.4479 59.7732 25.2257 59.0547 25.059Z" fill="#ED1C24"/>
<path d="M50.7468 26.5545C50.2505 26.9804 49.8394 27.4619 49.5098 27.973C52.3653 31.3508 57.132 34.6137 64.369 38.2693C64.3764 37.7656 64.3912 37.2656 64.4209 36.773C64.4246 36.7248 64.4283 36.6804 64.432 36.636C64.4431 36.5026 64.4579 36.373 64.469 36.2397C57.8283 32.7656 53.395 29.7582 50.7468 26.5545Z" fill="#ED1C24"/>
<path d="M57.623 13.8229C58.2008 14.0118 58.7934 14.2377 59.4008 14.4858C59.5082 13.1192 59.7379 11.7303 60.0749 10.3155C59.9712 10.2747 59.8712 10.2266 59.7712 10.1932C59.2564 10.0229 58.7712 9.88954 58.3008 9.78584C57.9712 11.1784 57.7453 12.5192 57.623 13.8229Z" fill="#ED1C24"/>
<path d="M138.435 10.6059C138.223 10.4096 137.901 10.3096 137.449 10.3096C136.42 10.3096 134.972 10.8281 133.579 11.3281C132.175 11.8281 130.842 12.3022 129.838 12.3022C129.361 12.3022 128.975 12.1948 128.675 11.98C127.694 11.2614 126.938 8.56884 126.049 5.1281C125.857 4.37255 125.635 3.50588 125.446 2.89477C123.153 8.47255 120.938 12.5651 118.346 16.0133C121.861 18.6911 124.368 22.7874 125.338 27.417C136.294 16.3651 138.586 12.3688 138.561 10.9688C138.557 10.7466 138.49 10.654 138.435 10.6059Z" fill="#ED1C24"/>
<path d="M92.5106 73.153C92.2143 73.5641 92.0477 73.8456 91.9551 74.0345C92.6403 73.7826 93.9736 73.0234 95.081 72.3937C97.3699 71.0863 99.744 69.7382 101.081 69.7382C102.455 69.7567 104.059 71.3308 105.611 72.8493C106.5 73.7196 107.714 74.9122 108.155 74.9122C108.144 74.9196 108.177 74.8826 108.214 74.7122C111.418 60.9048 107.551 54.7604 104.725 50.2715C104.266 49.5345 103.888 48.9789 103.888 48.9789C98.8995 48.9789 95.1514 47.3826 94.6736 47.1678C94.3403 48.1419 93.9588 49.0085 93.5292 49.7752C96.7625 62.5159 97.344 66.2863 92.5106 73.153Z" fill="#ED1C24"/>
<path d="M41.8918 16.0349C39.2918 12.583 37.0695 8.48304 34.7732 2.89786C34.588 3.50156 34.3621 4.37193 34.1695 5.12749C33.2843 8.56823 32.5288 11.2571 31.5473 11.9793C30.6251 12.646 28.7177 12.0682 26.6399 11.3275C25.2436 10.8275 23.8029 10.3127 22.7658 10.3127C22.3177 10.3127 21.9955 10.4053 21.7843 10.6053C21.7325 10.6497 21.6658 10.7423 21.6584 10.9645C21.6325 12.3682 23.9325 16.3719 34.9214 27.4497C35.8806 22.8201 38.3806 18.7201 41.8918 16.0349Z" fill="#ED1C24"/>
<path d="M59.0996 44.2775C51.8736 44.4627 46.507 40.0886 46.307 33.8108C46.0922 26.896 49.9181 22.6441 56.5477 22.4367C59.707 22.3516 63.9218 23.7664 67.6885 26.1516C68.4181 25.0812 69.244 24.1849 70.1551 23.4886C64.981 19.5367 58.1588 15.2515 52.9107 15.2515C42.6514 15.2515 37.2773 23.4886 37.2773 31.6219C37.2773 39.7256 46.0625 46.5701 56.4551 46.5701C58.9551 46.5701 62.7514 46.0701 64.881 44.7886C64.7366 44.0219 64.6181 43.2034 64.5292 42.3256C63.107 43.4182 60.4848 44.233 59.0996 44.2775Z" fill="#ED1C24"/>
<path d="M107.342 15.2752C101.987 15.2752 94.9904 19.7419 89.7793 23.7567C90.8719 24.3567 91.8089 25.1567 92.6089 26.1456C96.3645 23.7789 100.561 22.3789 103.709 22.4567C110.335 22.6678 114.161 26.9197 113.942 33.8382C113.746 40.116 108.379 44.4863 101.153 44.3049C99.7682 44.2604 97.1386 43.4382 95.7126 42.3456C95.62 43.2123 95.4867 44.0197 95.3237 44.7789C97.4423 46.0863 101.276 46.5938 103.798 46.5938C114.194 46.5938 122.976 39.7456 122.976 31.6456C122.976 23.5123 117.605 15.2752 107.342 15.2752Z" fill="#ED1C24"/>
<path d="M64.4761 36.2442L64.4687 36.2405C64.4576 36.3738 64.4428 36.4997 64.4316 36.6331C64.4428 36.4997 64.4539 36.3701 64.4761 36.2442Z" fill="white"/>
<path d="M64.4044 38.2898C64.4452 37.8046 64.4007 37.275 64.4192 36.775C64.3933 37.2639 64.3785 37.7676 64.3711 38.2713C64.3822 38.2787 64.3933 38.2824 64.4044 38.2898Z" fill="white"/>
<path d="M88.4563 49.1456C86.9563 49.1456 85.8637 44.1567 85.8637 38.3938C85.8637 32.6308 87.0785 27.9605 88.5785 27.9605C90.0785 27.9605 91.8007 32.6568 91.8007 38.4197C91.8007 44.1864 89.9563 49.1456 88.4563 49.1456ZM93.5674 36.7642C93.2822 30.7679 91.5451 25.3642 85.1266 24.7382L74.4859 24.1049C70.1007 24.4975 66.6562 30.7456 66.6562 38.6345C66.6562 47.6308 69.5525 52.6345 74.1822 53.3827L84.2896 53.6123C88.2748 53.3419 94.197 49.8827 93.5674 36.7642Z" fill="#ED1C24"/>
<path d="M66.5379 73.2686C66.112 74.5167 59.3379 70.0686 58.0046 70.0686C56.6305 70.0871 53.5786 73.2945 52.8564 72.7056C49.5786 70.0353 52.9083 54.7575 55.7342 50.2723C56.1972 49.5353 56.5749 48.9797 56.5749 48.9797C61.5601 48.9797 65.312 47.3797 65.786 47.1686C66.1194 48.139 66.5046 49.0093 66.9305 49.776C61.9675 67.7093 67.4527 70.6019 66.5379 73.2686Z" fill="#ED1C24"/>
</svg>
