<svg width="474" height="85" viewBox="0 0 474 85" fill="none" xmlns="http://www.w3.org/2000/svg">
<path fill-rule="evenodd" clip-rule="evenodd" d="M147.07 36.562V83.297H177.641V72.141H158.77V65.54H171.226V54.368H158.767V48.124H177.641V36.562H147.07Z" fill="#8DC63F"/>
<path fill-rule="evenodd" clip-rule="evenodd" d="M225.299 36.562V83.297H255.868V72.141H236.994V65.54H249.454V54.368H236.994V48.124H255.868V36.562H225.299Z" fill="#8DC63F"/>
<path fill-rule="evenodd" clip-rule="evenodd" d="M0 36.562V68.65V70.67C0 78.069 7.767 84.108 17.431 84.108C27.089 84.108 34.991 78.068 34.991 70.67V68.65V36.562H22.941V68.148C22.916 70.944 20.366 72.857 17.425 72.857C14.486 72.857 11.985 70.932 11.962 68.137V36.562H0Z" fill="#8DC63F"/>
<path fill-rule="evenodd" clip-rule="evenodd" d="M105.054 36.562L105.047 62.664C105.047 70.062 112.547 80.624 122.328 84.494C131.912 80.095 139.737 70.062 139.737 62.664V36.562H127.798V62.579C127.771 65.364 125.242 70.506 122.328 71.383C119.414 70.313 116.924 65.364 116.903 62.557V36.562H105.054Z" fill="#8DC63F"/>
<path fill-rule="evenodd" clip-rule="evenodd" d="M42.9062 36.562V83.297H55.0882V51.657C61.1222 53.907 65.6403 58.873 65.8963 65.87V83.297H78.3352V36.562H66.1422V43.191C60.6512 36.279 52.5112 36.562 42.9062 36.562Z" fill="#8DC63F"/>
<path d="M98.06 36.562H86.123V83.297H98.06V36.562Z" fill="#8DC63F"/>
<path fill-rule="evenodd" clip-rule="evenodd" d="M185.15 36.562V83.297H197.052V71.445C202.302 71.622 204.755 75.539 205.022 83.297H217.2C217.568 77.55 217.029 71.745 211.961 66.351C224.647 54.993 217.361 36.841 195.289 36.561L185.15 36.562ZM197.053 47.867C208.574 49.038 206.872 60.445 197.053 60.488V47.867Z" fill="#8DC63F"/>
<path fill-rule="evenodd" clip-rule="evenodd" d="M399.844 36.562V83.297H411.739V71.445C416.993 71.622 419.445 75.539 419.723 83.297H431.89C432.264 77.55 431.713 71.745 426.658 66.351C439.336 54.993 432.05 36.841 409.985 36.561L399.844 36.562ZM411.738 47.867C423.262 49.038 421.561 60.445 411.738 60.488V47.867Z" fill="#8DC63F"/>
<path fill-rule="evenodd" clip-rule="evenodd" d="M307.387 36.562V83.297H319.29V71.992C324.912 72.076 330.2 70.569 334.916 66.431C346.177 55.153 339.522 36.841 317.538 36.561L307.387 36.562ZM319.29 48.081C330.81 49.257 329.114 60.674 319.29 60.717V48.081Z" fill="#8DC63F"/>
<path fill-rule="evenodd" clip-rule="evenodd" d="M274.18 60.595L262.607 83.297H275.74L281.344 71.878L287.484 83.297H301.078L288.303 60.595H274.18Z" fill="#8DC63F"/>
<path fill-rule="evenodd" clip-rule="evenodd" d="M260.486 33.676C265.084 40.351 270.991 50.118 273.749 57.665H288.709C297.145 35.535 309.566 16.361 322.765 -0.00100708L302.832 0.266993C294.355 14.117 287.502 28.09 281.273 45.034C279.803 41.565 277.286 36.717 274.799 33.676H260.486Z" fill="#006838"/>
<path fill-rule="evenodd" clip-rule="evenodd" d="M368.953 36.076C382.819 36.076 394.145 46.873 394.145 60.097C394.145 73.317 382.819 84.108 368.953 84.108C355.082 84.108 343.766 73.316 343.766 60.097C343.767 46.873 355.082 36.076 368.953 36.076ZM368.953 47.711C376.106 47.711 381.942 53.272 381.942 60.097C381.942 66.912 376.106 72.471 368.953 72.471C361.802 72.471 355.965 66.912 355.965 60.097C355.965 53.272 361.802 47.711 368.953 47.711Z" fill="#8DC63F"/>
<path fill-rule="evenodd" clip-rule="evenodd" d="M436.637 36.541V48.001H448.748V83.285H461.081V47.879H473.486V36.541H436.637Z" fill="#8DC63F"/>
</svg>
